<?xml version="1.0" encoding="UTF-8" standalone="no"?>
<svg class="svg" height="50mm" width="90mm" xmlns="http://www.w3.org/2000/svg" viewBox="0 0 90 50">
  <g paint-order="markers fill stroke">
    <path d="M21.424.29L62.573 0c11.953-.083 21.644 9.35 21.73 21.152.084 11.802-9.47 21.37-21.424 21.454l-41.149.29C9.777 42.978.085 33.545 0 21.742-.083 9.942 9.47.373 21.425.29z" fill="#f7b7b7"/>
    <path d="M22.295 3.985l39.287-.275c9.916-.07 17.957 7.756 18.027 17.548.07 9.791-7.856 17.73-17.773 17.799l-39.287.276c-9.917.07-17.957-7.757-18.027-17.549-.07-9.79 7.856-17.73 17.773-17.799z" fill="#f88888"/>
  </g>
</svg>
