<?xml version="1.0" encoding="UTF-8" standalone="no"?>
<!-- Created with Inkscape (http://www.inkscape.org/) -->

<svg
   xmlns:dc="http://purl.org/dc/elements/1.1/"
   xmlns:cc="http://creativecommons.org/ns#"
   xmlns:rdf="http://www.w3.org/1999/02/22-rdf-syntax-ns#"
   xmlns:svg="http://www.w3.org/2000/svg"
   xmlns="http://www.w3.org/2000/svg"
   xmlns:sodipodi="http://sodipodi.sourceforge.net/DTD/sodipodi-0.dtd"
   xmlns:inkscape="http://www.inkscape.org/namespaces/inkscape"
   width="333mm"
   height="170mm"
   viewBox="0 0 333 170"
   version="1.1"
   id="svg8"
   inkscape:version="0.92.2 5c3e80d, 2017-08-06"
   sodipodi:docname="hicdiesmeus.svg">
  <defs
     id="defs2" />
  <sodipodi:namedview
     id="base"
     pagecolor="#ffffff"
     bordercolor="#666666"
     borderopacity="1.0"
     inkscape:pageopacity="0.0"
     inkscape:pageshadow="2"
     inkscape:zoom="1.0887973"
     inkscape:cx="609.86901"
     inkscape:cy="382.15992"
     inkscape:document-units="mm"
     inkscape:current-layer="layer1"
     showgrid="false"
     inkscape:window-width="2560"
     inkscape:window-height="1304"
     inkscape:window-x="0"
     inkscape:window-y="1"
     inkscape:window-maximized="1" />
  <metadata
     id="metadata5">
    <rdf:RDF>
      <cc:Work
         rdf:about="">
        <dc:format>image/svg+xml</dc:format>
        <dc:type
           rdf:resource="http://purl.org/dc/dcmitype/StillImage" />
        <dc:title />
      </cc:Work>
    </rdf:RDF>
  </metadata>
  <g
     inkscape:label="Layer 1"
     inkscape:groupmode="layer"
     id="layer1"
     transform="translate(0,-127)">
    <g
       id="g4886"
       transform="translate(-91.357356,108.58368)"
       style="fill:#d4aa00;fill-opacity:1">
      <path
         sodipodi:nodetypes="csccsscccccccccccccccscccccscccscccccscscscscsscscscscsscsccccsscscccscsscscscscsscscscscs"
         style="fill:#d4aa00;fill-opacity:1;stroke-width:1"
         d="m 232.75597,166.21312 c -0.5846,-0.31421 -1.06901,-0.99491 -1.06901,-1.50218 0,-0.50728 0.48441,-1.18798 1.06901,-1.50219 0.52812,-0.28386 0.96611,-0.29207 15.6147,-0.29261 16.63639,-5.7e-4 15.73137,-0.0525 16.41913,0.94179 0.41961,0.60663 0.41961,1.09938 0,1.70601 -0.68776,0.99432 0.21726,0.94241 -16.41913,0.94179 -14.64859,-5.6e-4 -15.08658,-0.009 -15.6147,-0.29261 z m 33.38475,-1.50218 c -177.427147,88.19271 -88.71357,44.09635 0,0 z m -40.90323,-5.04654 c -1.54583,-0.68891 -1.47954,-2.69043 0.1085,-3.27534 0.48512,-0.17868 1.57741,-0.21 6.08467,-0.17452 5.26645,0.0414 5.5132,0.0562 5.97231,0.35603 0.26338,0.17204 0.58806,0.58507 0.7215,0.91786 0.21036,0.52464 0.21034,0.67983 -1.2e-4,1.16729 -0.1335,0.3092 -0.45818,0.70408 -0.72151,0.87749 -0.46086,0.3035 -0.68632,0.31681 -6.02504,0.35561 -5.02433,0.0365 -5.60218,0.0154 -6.14031,-0.22442 z m 14.93562,-0.002 c -1.10532,-0.48868 -1.45925,-1.74174 -0.75831,-2.68476 0.61768,-0.831 -0.17901,-0.80165 20.60317,-0.75904 l 19.16659,0.0393 0.47903,0.3153 c 0.26347,0.17341 0.58826,0.56829 0.72177,0.87749 0.21046,0.48746 0.21048,0.64266 1.2e-4,1.16729 -0.13345,0.3328 -0.45824,0.74583 -0.72177,0.91786 -0.4786,0.31242 -0.50104,0.31282 -19.68786,0.35099 -18.02826,0.0358 -19.24522,0.0221 -19.80274,-0.22443 z m -7.58686,-6.76474 c -0.5846,-0.31421 -1.06901,-0.99491 -1.06901,-1.50218 0,-0.50727 0.48441,-1.18797 1.06901,-1.50219 0.52935,-0.28452 0.98208,-0.29207 17.56651,-0.29261 18.79334,-5.6e-4 17.6796,-0.0577 18.37095,0.94179 0.4196,0.60663 0.4196,1.09938 0,1.70602 -0.69135,0.9995 0.42239,0.9424 -18.37095,0.94179 -16.58443,-5.7e-4 -17.03716,-0.008 -17.56651,-0.29262 z m 38.18765,0 c -0.58459,-0.31421 -1.069,-0.99491 -1.069,-1.50218 0,-0.50727 0.48441,-1.18797 1.069,-1.50219 0.52665,-0.28307 0.9505,-0.29205 13.78175,-0.29205 12.83125,0 13.2551,0.009 13.78175,0.29205 0.58459,0.31422 1.06901,0.99492 1.06901,1.50219 0,0.50727 -0.48442,1.18797 -1.06901,1.50218 -0.52665,0.28308 -0.9505,0.29206 -13.78175,0.29206 -12.83125,0 -13.2551,-0.009 -13.78175,-0.29206 z m -38.1087,-13.57711 c -0.5846,-0.31421 -1.06901,-0.99491 -1.06901,-1.50219 0,-0.50727 0.48441,-1.18797 1.06901,-1.50218 0.53218,-0.28604 1.03946,-0.29206 24.64402,-0.29206 23.60455,0 24.11183,0.006 24.64401,0.29206 0.5846,0.31421 1.06901,0.99491 1.06901,1.50218 0,0.50728 -0.48441,1.18798 -1.06901,1.50219 -0.53218,0.28604 -1.03946,0.29205 -24.64401,0.29205 -23.60456,0 -24.11184,-0.006 -24.64402,-0.29205 z m -0.0789,6.64619 c -0.5846,-0.31421 -1.06901,-0.99491 -1.06901,-1.50218 0,-0.50727 0.48441,-1.18797 1.06901,-1.50219 0.52811,-0.28386 0.9661,-0.29206 15.61469,-0.29261 16.6364,-5.6e-4 15.73138,-0.0525 16.41914,0.94179 0.4196,0.60663 0.4196,1.09938 0,1.70602 -0.68776,0.99431 0.21726,0.9424 -16.41914,0.94179 -14.64859,-5.4e-4 -15.08658,-0.009 -15.61469,-0.29262 z m 34.45375,0 c -0.5846,-0.31421 -1.06901,-0.99491 -1.06901,-1.50218 0,-0.50727 0.48441,-1.18797 1.06901,-1.50219 0.52864,-0.28414 0.97236,-0.29206 16.37845,-0.29261 17.48035,-5.6e-4 16.49363,-0.0547 17.18289,0.94179 0.18222,0.26344 0.3313,0.64729 0.3313,0.85301 0,0.20572 -0.14908,0.58957 -0.3313,0.85301 -0.68926,0.99648 0.29746,0.9424 -17.18289,0.94179 -15.40609,-5.4e-4 -15.84981,-0.008 -16.37845,-0.29262 z m -41.92156,-12.66865 c -0.5846,-0.31422 -1.06901,-0.99492 -1.06901,-1.50219 0,-0.50727 0.48441,-1.18797 1.06901,-1.50218 0.52168,-0.2804 0.91922,-0.29206 9.96298,-0.29206 9.04376,0 9.4413,0.0117 9.96298,0.29206 0.5846,0.31421 1.06901,0.99491 1.06901,1.50218 0,0.50727 -0.48441,1.18797 -1.06901,1.50219 -0.52168,0.28039 -0.91922,0.29205 -9.96298,0.29205 -9.04376,0 -9.4413,-0.0117 -9.96298,-0.29205 z m 22.74287,0 c -0.58459,-0.31422 -1.06901,-0.99492 -1.06901,-1.50219 0,-0.50727 0.48442,-1.18797 1.06901,-1.50218 0.52649,-0.28299 0.94911,-0.29206 13.61202,-0.29206 12.66292,0 13.08554,0.009 13.61203,0.29206 0.5846,0.31421 1.06901,0.99491 1.06901,1.50218 0,0.50727 -0.48441,1.18797 -1.06901,1.50219 -0.52649,0.28298 -0.94911,0.29205 -13.61203,0.29205 -12.66291,0 -13.08553,-0.009 -13.61202,-0.29205 z"
         id="path4882"
         inkscape:connector-curvature="0" />
      <path
         inkscape:connector-curvature="0"
         id="path4884"
         d="m 267.72821,166.29842 c -1.54583,-0.68891 -1.47954,-2.69043 0.1085,-3.27534 0.48512,-0.17868 1.57741,-0.21 6.08467,-0.17452 5.26645,0.0414 5.5132,0.0562 5.97231,0.35603 0.26338,0.17204 0.58806,0.58507 0.7215,0.91786 0.21036,0.52464 0.21034,0.67983 -1.2e-4,1.16729 -0.1335,0.3092 -0.45818,0.70408 -0.72151,0.87749 -0.46086,0.3035 -0.68632,0.31681 -6.02504,0.35561 -5.02433,0.0365 -5.60218,0.0154 -6.14031,-0.22442 z"
         style="fill:#d4aa00;fill-opacity:1;stroke-width:1"
         sodipodi:nodetypes="ccccccccc" />
    </g>
    <path
       sodipodi:nodetypes="csccsscccscscscsccccccccccccscccccscccscccccccscscscsccscscscsccsccccsccscccscsccscscscsccscscscsc"
       style="fill:#ff8080;fill-opacity:1;stroke-width:1"
       d="m 31.943529,274.28806 c -0.5846,-0.31421 -1.06902,-0.99492 -1.06902,-1.50218 0,-0.50728 0.48442,-1.18798 1.06902,-1.5022 0.52811,-0.28385 0.9661,-0.29206 15.61469,-0.2926 16.63641,-5.7e-4 15.73139,-0.0525 16.41915,0.94178 0.4196,0.60664 0.4196,1.09939 0,1.70602 -0.68776,0.99432 0.21726,0.94241 -16.41915,0.94179 -14.64859,-5.6e-4 -15.08658,-0.009 -15.61469,-0.29261 z m 34.45376,0 c -0.5846,-0.31421 -1.06901,-0.99492 -1.06901,-1.50218 0,-0.50728 0.48441,-1.18798 1.06901,-1.5022 0.52649,-0.28298 0.94911,-0.29205 13.61202,-0.29205 12.66292,0 13.08554,0.009 13.61203,0.29205 0.5846,0.31422 1.069,0.99492 1.069,1.5022 0,0.50726 -0.4844,1.18797 -1.069,1.50218 -0.52649,0.28298 -0.94911,0.29205 -13.61203,0.29205 -12.66291,0 -13.08553,-0.009 -13.61202,-0.29205 z m -41.97224,-6.54872 c -1.54584,-0.68891 -1.47955,-2.69044 0.10849,-3.27534 0.48512,-0.17868 1.57741,-0.21001 6.08467,-0.17452 5.26645,0.0414 5.51321,0.0562 5.97231,0.35603 0.26338,0.17203 0.58806,0.58507 0.7215,0.91786 0.21037,0.52464 0.21035,0.67983 -1.1e-4,1.16728 -0.13351,0.30921 -0.45819,0.70409 -0.72152,0.8775 -0.46086,0.3035 -0.68632,0.3168 -6.02504,0.35561 -5.02433,0.0365 -5.60218,0.0154 -6.1403,-0.22442 z m 14.93561,-0.002 c -1.10532,-0.48868 -1.45925,-1.74174 -0.75831,-2.68476 0.61768,-0.831 -0.17901,-0.80165 20.60318,-0.75904 l 19.1666,0.0393 0.47903,0.3153 c 0.26346,0.17341 0.58826,0.56828 0.72176,0.87749 0.21047,0.48746 0.21048,0.64266 1.2e-4,1.16728 -0.13344,0.3328 -0.45824,0.74584 -0.72177,0.91786 -0.4786,0.31243 -0.50103,0.31283 -19.68786,0.351 -18.02827,0.0358 -19.24523,0.022 -19.80275,-0.22443 z m -7.58686,-6.76474 c -0.58459,-0.31421 -1.06901,-0.99491 -1.06901,-1.50218 0,-0.50727 0.48442,-1.18798 1.06901,-1.50219 0.52936,-0.28452 0.98209,-0.29207 17.56651,-0.29261 18.79336,-5.7e-4 17.67962,-0.0577 18.37096,0.94178 0.41961,0.60664 0.41961,1.09939 0,1.70603 -0.69134,0.99949 0.4224,0.9424 -18.37096,0.94178 -16.58442,-5.6e-4 -17.03715,-0.008 -17.56651,-0.29261 z m 38.18767,0 c -0.5846,-0.31421 -1.06901,-0.99491 -1.06901,-1.50218 0,-0.50727 0.48441,-1.18798 1.06901,-1.50219 0.52665,-0.28307 0.9505,-0.29205 13.78175,-0.29205 12.83124,0 13.2551,0.009 13.78175,0.29205 0.58459,0.31421 1.069,0.99492 1.069,1.50219 0,0.50727 -0.48441,1.18797 -1.069,1.50218 -0.52665,0.28307 -0.95051,0.29205 -13.78175,0.29205 -12.83125,0 -13.2551,-0.009 -13.78175,-0.29205 z m -22.23371,-6.43336 c -0.5846,-0.31421 -1.06902,-0.99492 -1.06902,-1.50219 0,-0.50727 0.48442,-1.18797 1.06902,-1.50219 0.53217,-0.28604 1.03945,-0.29205 24.64402,-0.29205 23.60456,0 24.11184,0.006 24.64402,0.29205 0.58459,0.31422 1.069,0.99492 1.069,1.50219 0,0.50727 -0.48441,1.18798 -1.069,1.50219 -0.53218,0.28604 -1.03946,0.29205 -24.64402,0.29205 -23.60457,0 -24.11185,-0.006 -24.64402,-0.29205 z m -15.95396,-6.58298 c -0.58459,-0.31421 -1.06901,-0.99491 -1.06901,-1.50218 0,-0.50727 0.48442,-1.18797 1.06901,-1.50219 0.52812,-0.28386 0.9661,-0.29206 15.61469,-0.29261 16.63641,-5.6e-4 15.7314,-0.0525 16.41916,0.94179 0.4196,0.60663 0.4196,1.09938 0,1.70602 -0.68776,0.99431 0.21725,0.9424 -16.41916,0.94178 -14.64859,-5.3e-4 -15.08657,-0.009 -15.61469,-0.29261 z m 34.45377,0 c -0.5846,-0.31421 -1.06901,-0.99491 -1.06901,-1.50218 0,-0.50727 0.48441,-1.18797 1.06901,-1.50219 0.52864,-0.28414 0.97235,-0.29206 16.37845,-0.29261 17.480361,-5.6e-4 16.493629,-0.0547 17.182888,0.94179 0.18222,0.26344 0.331313,0.64729 0.331313,0.85301 0,0.20571 -0.149093,0.58957 -0.331313,0.85301 -0.689259,0.99648 0.297473,0.9424 -17.182888,0.94178 -15.4061,-5.3e-4 -15.84981,-0.008 -16.37845,-0.29261 z m -41.92158,-6.58297 c -0.58459,-0.31422 -1.06901,-0.99492 -1.06901,-1.50219 0,-0.50727 0.48442,-1.18797 1.06901,-1.50218 0.52168,-0.2804 0.91922,-0.29206 9.96298,-0.29206 9.04376,0 9.4413,0.0116 9.96299,0.29206 0.58459,0.31421 1.069,0.99491 1.069,1.50218 0,0.50727 -0.48441,1.18797 -1.069,1.50219 -0.52169,0.2804 -0.91923,0.29205 -9.96299,0.29205 -9.04376,0 -9.4413,-0.0117 -9.96298,-0.29205 z m 22.74287,0 c -0.58459,-0.31422 -1.06901,-0.99492 -1.06901,-1.50219 0,-0.50727 0.48442,-1.18797 1.06901,-1.50218 0.52649,-0.28299 0.94911,-0.29206 13.61204,-0.29206 12.66292,0 13.08554,0.009 13.61203,0.29206 0.58459,0.31421 1.069,0.99491 1.069,1.50218 0,0.50727 -0.48441,1.18797 -1.069,1.50219 -0.52649,0.28298 -0.94911,0.29205 -13.61203,0.29205 -12.66293,0 -13.08555,-0.009 -13.61204,-0.29205 z"
       id="path4794"
       inkscape:connector-curvature="0" />
    <text
       xml:space="preserve"
       style="font-style:normal;font-variant:normal;font-weight:normal;font-stretch:normal;font-size:7.76111126px;line-height:1;font-family:code;-inkscape-font-specification:code;letter-spacing:0px;word-spacing:0px;fill:#000000;fill-opacity:1;stroke:none;stroke-width:0.26458332"
       x="16.821264"
       y="140.25711"
       id="text836"><tspan
         sodipodi:role="line"
         id="tspan834"
         x="16.821264"
         y="140.25711"
         style="font-style:normal;font-variant:normal;font-weight:normal;font-stretch:normal;font-family:monospace;-inkscape-font-specification:monospace;stroke-width:0.26458332">Escherichia coli</tspan></text>
    <g
       id="g4613"
       transform="matrix(0.95253759,0,0,0.94898284,3.2428781,117.39498)"
       style="stroke-width:1.05179179">
      <rect
         style="opacity:1;fill:#ffd5d5;fill-opacity:1;stroke:none;stroke-width:0.90980011;stroke-linejoin:bevel;stroke-miterlimit:4;stroke-dasharray:none;stroke-dashoffset:0;stroke-opacity:1"
         id="rect4541"
         width="21.023056"
         height="9.5330954"
         x="27.61968"
         y="43.344837"
         ry="3.899905" />
      <rect
         ry="3.2057753"
         y="44.228317"
         x="29.116661"
         height="7.836339"
         width="18.27239"
         id="rect824"
         style="opacity:1;fill:#ff8080;fill-opacity:1;stroke:none;stroke-width:0.90979981;stroke-linejoin:bevel;stroke-miterlimit:4;stroke-dasharray:none;stroke-dashoffset:0;stroke-opacity:1" />
    </g>
    <ellipse
       style="opacity:1;fill:none;fill-opacity:1;stroke:#1e86fe;stroke-width:1.5;stroke-linejoin:bevel;stroke-miterlimit:4;stroke-dasharray:none;stroke-dashoffset:0;stroke-opacity:1"
       id="path4543"
       cx="39.621094"
       cy="163.10181"
       rx="12.563381"
       ry="7.914197" />
    <g
       id="g4619"
       transform="matrix(0.95253759,0,0,0.94898284,-3.1619043,136.60662)"
       style="stroke-width:1.05179179">
      <rect
         ry="3.899905"
         y="43.344837"
         x="27.61968"
         height="9.5330954"
         width="21.023056"
         id="rect4615"
         style="opacity:1;fill:#ffd5d5;fill-opacity:1;stroke:none;stroke-width:0.90980011;stroke-linejoin:bevel;stroke-miterlimit:4;stroke-dasharray:none;stroke-dashoffset:0;stroke-opacity:1" />
      <rect
         style="opacity:1;fill:#ff8080;fill-opacity:1;stroke:none;stroke-width:0.90979981;stroke-linejoin:bevel;stroke-miterlimit:4;stroke-dasharray:none;stroke-dashoffset:0;stroke-opacity:1"
         id="rect4617"
         width="18.27239"
         height="7.836339"
         x="29.116661"
         y="44.228317"
         ry="3.2057753" />
    </g>
    <g
       transform="matrix(0.95253759,0,0,0.94898284,23.874843,140.5192)"
       id="g4625"
       style="stroke-width:1.05179179">
      <rect
         style="opacity:1;fill:#ffd5d5;fill-opacity:1;stroke:none;stroke-width:0.90980011;stroke-linejoin:bevel;stroke-miterlimit:4;stroke-dasharray:none;stroke-dashoffset:0;stroke-opacity:1"
         id="rect4621"
         width="21.023056"
         height="9.5330954"
         x="27.61968"
         y="43.344837"
         ry="3.899905" />
      <rect
         ry="3.2057753"
         y="44.228317"
         x="29.116661"
         height="7.836339"
         width="18.27239"
         id="rect4623"
         style="opacity:1;fill:#ff8080;fill-opacity:1;stroke:none;stroke-width:0.90979981;stroke-linejoin:bevel;stroke-miterlimit:4;stroke-dasharray:none;stroke-dashoffset:0;stroke-opacity:1" />
    </g>
    <g
       id="g4631"
       transform="matrix(0.95253759,0,0,0.94898284,1.221503,153.35277)"
       style="stroke-width:1.05179179">
      <rect
         ry="3.899905"
         y="43.344837"
         x="27.61968"
         height="9.5330954"
         width="21.023056"
         id="rect4627"
         style="opacity:1;fill:#ffd5d5;fill-opacity:1;stroke:none;stroke-width:0.90980011;stroke-linejoin:bevel;stroke-miterlimit:4;stroke-dasharray:none;stroke-dashoffset:0;stroke-opacity:1" />
      <rect
         style="opacity:1;fill:#ff8080;fill-opacity:1;stroke:none;stroke-width:0.90979981;stroke-linejoin:bevel;stroke-miterlimit:4;stroke-dasharray:none;stroke-dashoffset:0;stroke-opacity:1"
         id="rect4629"
         width="18.27239"
         height="7.836339"
         x="29.116661"
         y="44.228317"
         ry="3.2057753" />
    </g>
    <g
       transform="matrix(0.61608288,0.7237665,-0.72647763,0.61378373,75.559457,109.86178)"
       id="g4637"
       style="stroke-width:1.05179179">
      <rect
         style="opacity:1;fill:#ffd5d5;fill-opacity:1;stroke:none;stroke-width:0.90980011;stroke-linejoin:bevel;stroke-miterlimit:4;stroke-dasharray:none;stroke-dashoffset:0;stroke-opacity:1"
         id="rect4633"
         width="21.023056"
         height="9.5330954"
         x="27.61968"
         y="43.344837"
         ry="3.899905" />
      <rect
         ry="3.2057753"
         y="44.228317"
         x="29.116661"
         height="7.836339"
         width="18.27239"
         id="rect4635"
         style="opacity:1;fill:#ff8080;fill-opacity:1;stroke:none;stroke-width:0.90979981;stroke-linejoin:bevel;stroke-miterlimit:4;stroke-dasharray:none;stroke-dashoffset:0;stroke-opacity:1" />
    </g>
    <g
       id="g4643"
       transform="matrix(0.61608288,0.7237665,-0.72647763,0.61378373,73.008916,150.30911)"
       style="stroke-width:1.05179179">
      <rect
         ry="3.899905"
         y="43.344837"
         x="27.61968"
         height="9.5330954"
         width="21.023056"
         id="rect4639"
         style="opacity:1;fill:#ffd5d5;fill-opacity:1;stroke:none;stroke-width:0.90980011;stroke-linejoin:bevel;stroke-miterlimit:4;stroke-dasharray:none;stroke-dashoffset:0;stroke-opacity:1" />
      <rect
         style="opacity:1;fill:#ff8080;fill-opacity:1;stroke:none;stroke-width:0.90979981;stroke-linejoin:bevel;stroke-miterlimit:4;stroke-dasharray:none;stroke-dashoffset:0;stroke-opacity:1"
         id="rect4641"
         width="18.27239"
         height="7.836339"
         x="29.116661"
         y="44.228317"
         ry="3.2057753" />
    </g>
    <g
       transform="matrix(0.61608288,0.7237665,-0.72647763,0.61378373,34.20692,151.41706)"
       id="g4655"
       style="stroke-width:1.05179179">
      <rect
         style="opacity:1;fill:#ffd5d5;fill-opacity:1;stroke:none;stroke-width:0.90980011;stroke-linejoin:bevel;stroke-miterlimit:4;stroke-dasharray:none;stroke-dashoffset:0;stroke-opacity:1"
         id="rect4651"
         width="21.023056"
         height="9.5330954"
         x="27.61968"
         y="43.344837"
         ry="3.899905" />
      <rect
         ry="3.2057753"
         y="44.228317"
         x="29.116661"
         height="7.836339"
         width="18.27239"
         id="rect4653"
         style="opacity:1;fill:#ff8080;fill-opacity:1;stroke:none;stroke-width:0.90979981;stroke-linejoin:bevel;stroke-miterlimit:4;stroke-dasharray:none;stroke-dashoffset:0;stroke-opacity:1" />
    </g>
    <ellipse
       cy="83.290604"
       cx="-181.28204"
       id="circle4561"
       style="opacity:1;fill:none;fill-opacity:1;stroke:#1e86fe;stroke-width:1.50089312;stroke-linejoin:bevel;stroke-miterlimit:4;stroke-dasharray:none;stroke-dashoffset:0;stroke-opacity:1"
       rx="8.4290037"
       ry="11.826134"
       transform="matrix(0.12483384,-0.99217766,0.99708485,0.07630073,0,0)" />
    <g
       transform="matrix(0.95253759,0,0,0.94898284,49.559691,117.75108)"
       id="g4661"
       style="stroke-width:1.05179179">
      <rect
         style="opacity:1;fill:#ffd5d5;fill-opacity:1;stroke:none;stroke-width:0.90980011;stroke-linejoin:bevel;stroke-miterlimit:4;stroke-dasharray:none;stroke-dashoffset:0;stroke-opacity:1"
         id="rect4657"
         width="21.023056"
         height="9.5330954"
         x="27.61968"
         y="43.344837"
         ry="3.899905" />
      <rect
         ry="3.2057753"
         y="44.228317"
         x="29.116661"
         height="7.836339"
         width="18.27239"
         id="rect4659"
         style="opacity:1;fill:#ff8080;fill-opacity:1;stroke:none;stroke-width:0.90979981;stroke-linejoin:bevel;stroke-miterlimit:4;stroke-dasharray:none;stroke-dashoffset:0;stroke-opacity:1" />
    </g>
    <g
       id="g4667"
       transform="matrix(-0.36115906,0.87812544,-0.88141476,-0.35981126,139.2604,167.01088)"
       style="stroke-width:1.05179179">
      <rect
         ry="3.899905"
         y="43.344837"
         x="27.61968"
         height="9.5330954"
         width="21.023056"
         id="rect4663"
         style="opacity:1;fill:#ffd5d5;fill-opacity:1;stroke:none;stroke-width:0.90980011;stroke-linejoin:bevel;stroke-miterlimit:4;stroke-dasharray:none;stroke-dashoffset:0;stroke-opacity:1" />
      <rect
         style="opacity:1;fill:#ff8080;fill-opacity:1;stroke:none;stroke-width:0.90979981;stroke-linejoin:bevel;stroke-miterlimit:4;stroke-dasharray:none;stroke-dashoffset:0;stroke-opacity:1"
         id="rect4665"
         width="18.27239"
         height="7.836339"
         x="29.116661"
         y="44.228317"
         ry="3.2057753" />
    </g>
    <g
       transform="matrix(-0.36115906,0.87812544,-0.88141476,-0.35981126,139.37983,191.95514)"
       id="g4673"
       style="stroke-width:1.05179179">
      <rect
         style="opacity:1;fill:#ffd5d5;fill-opacity:1;stroke:none;stroke-width:0.90980011;stroke-linejoin:bevel;stroke-miterlimit:4;stroke-dasharray:none;stroke-dashoffset:0;stroke-opacity:1"
         id="rect4669"
         width="21.023056"
         height="9.5330954"
         x="27.61968"
         y="43.344837"
         ry="3.899905" />
      <rect
         ry="3.2057753"
         y="44.228317"
         x="29.116661"
         height="7.836339"
         width="18.27239"
         id="rect4671"
         style="opacity:1;fill:#ff8080;fill-opacity:1;stroke:none;stroke-width:0.90979981;stroke-linejoin:bevel;stroke-miterlimit:4;stroke-dasharray:none;stroke-dashoffset:0;stroke-opacity:1" />
    </g>
    <path
       style="fill:none;stroke:#1e86fe;stroke-width:1.5;stroke-linecap:butt;stroke-linejoin:round;stroke-miterlimit:4;stroke-dasharray:none;stroke-opacity:1"
       d="m 27.454166,165.07893 -16.634945,13.75028 -0.03651,61.22414"
       id="path4775"
       inkscape:connector-curvature="0"
       sodipodi:nodetypes="ccc" />
    <rect
       rx="2.7937953"
       style="opacity:1;fill:none;fill-opacity:1;stroke:#1e86fe;stroke-width:1.89999986;stroke-linejoin:bevel;stroke-miterlimit:4;stroke-dasharray:none;stroke-dashoffset:0;stroke-opacity:1"
       id="rect4779"
       width="86.36937"
       height="52.743862"
       x="18.099894"
       y="226.85291"
       ry="2.6982343" />
    <rect
       style="opacity:1;fill:#ffffff;fill-opacity:1;stroke:none;stroke-width:1.5;stroke-linejoin:round;stroke-miterlimit:4;stroke-dasharray:none;stroke-dashoffset:0;stroke-opacity:1"
       id="rect4781"
       width="78.520317"
       height="50.655907"
       x="13.949593"
       y="237.45396"
       rx="2.7937884"
       ry="2.6982472" />
    <path
       sodipodi:nodetypes="ccc"
       inkscape:connector-curvature="0"
       id="path4777"
       d="m 51.12755,190.28877 -16.634945,13.75038 -0.03651,22.65091"
       style="fill:none;stroke:#1e86fe;stroke-width:1.5;stroke-linecap:butt;stroke-linejoin:round;stroke-miterlimit:4;stroke-dasharray:none;stroke-opacity:1" />
    <path
       inkscape:connector-curvature="0"
       id="path4752"
       d="m 17.076015,288.00519 c -0.584599,-0.31421 -1.069013,-0.99491 -1.069013,-1.50218 0,-0.50728 0.484414,-1.18798 1.069013,-1.50219 0.528118,-0.28386 0.966103,-0.29207 15.614696,-0.29261 16.63639,-5.7e-4 15.731372,-0.0525 16.419133,0.94179 0.419604,0.60663 0.419604,1.09938 0,1.70601 -0.687761,0.99432 0.217257,0.94241 -16.419133,0.94179 -14.648593,-5.6e-4 -15.086578,-0.009 -15.614696,-0.29261 z m 34.45375,0 c -0.584597,-0.31421 -1.069008,-0.99491 -1.069008,-1.50218 0,-0.50728 0.484411,-1.18798 1.069008,-1.50219 0.526489,-0.28299 0.949108,-0.29206 13.612024,-0.29206 12.662915,0 13.085534,0.009 13.612023,0.29206 0.584597,0.31421 1.069008,0.99491 1.069008,1.50219 0,0.50727 -0.484411,1.18797 -1.069008,1.50218 -0.526489,0.28298 -0.949108,0.29206 -13.612023,0.29206 -12.662916,0 -13.085535,-0.009 -13.612024,-0.29206 z M 9.5575356,281.45647 c -1.5458394,-0.68891 -1.4795432,-2.69043 0.1084923,-3.27534 0.4851201,-0.17868 1.5774131,-0.21 6.0846731,-0.17452 5.26645,0.0414 5.513205,0.0562 5.972307,0.35603 0.263382,0.17204 0.588064,0.58507 0.721503,0.91786 0.210364,0.52464 0.210345,0.67983 -1.16e-4,1.16729 -0.133503,0.3092 -0.458184,0.70408 -0.721515,0.87749 -0.46086,0.3035 -0.686318,0.31681 -6.025042,0.35561 -5.024326,0.0365 -5.602178,0.0154 -6.1403024,-0.22442 z m 14.9356134,-0.002 c -1.105321,-0.48868 -1.459247,-1.74174 -0.75831,-2.68476 0.61768,-0.831 -0.179009,-0.80165 20.603169,-0.75904 l 19.166592,0.0393 0.479033,0.3153 c 0.263468,0.17341 0.588263,0.56829 0.721767,0.87749 0.210465,0.48746 0.210481,0.64266 1.17e-4,1.16729 -0.133441,0.3328 -0.458236,0.74583 -0.721768,0.91786 -0.478602,0.31242 -0.50104,0.31282 -19.68786,0.35099 -18.028261,0.0358 -19.245217,0.0221 -19.80274,-0.22443 z m -7.586861,-6.76474 c -0.584593,-0.31421 -1.069007,-0.99491 -1.069007,-1.50218 0,-0.50727 0.484414,-1.18797 1.069007,-1.50219 0.529356,-0.28452 0.982088,-0.29207 17.56651,-0.29261 18.793348,-5.6e-4 17.679606,-0.0577 18.37095,0.94179 0.419604,0.60663 0.419604,1.09938 0,1.70602 -0.691344,0.9995 0.422398,0.9424 -18.37095,0.94179 -16.584422,-5.7e-4 -17.037154,-0.008 -17.56651,-0.29262 z m 38.187658,0 c -0.584597,-0.31421 -1.069008,-0.99491 -1.069008,-1.50218 0,-0.50727 0.484411,-1.18797 1.069008,-1.50219 0.526649,-0.28307 0.950498,-0.29205 13.781746,-0.29205 12.831249,0 13.255098,0.009 13.781747,0.29205 0.584596,0.31422 1.069008,0.99492 1.069008,1.50219 0,0.50727 -0.484412,1.18797 -1.069008,1.50218 -0.526649,0.28308 -0.950498,0.29206 -13.781747,0.29206 -12.831248,0 -13.255097,-0.009 -13.781746,-0.29206 z m -22.233701,-6.43336 c -0.584599,-0.31421 -1.069013,-0.99491 -1.069013,-1.50219 0,-0.50727 0.484414,-1.18797 1.069013,-1.50218 0.532172,-0.28604 1.039455,-0.29206 24.644013,-0.29206 23.604554,0 24.111837,0.006 24.644012,0.29206 0.584597,0.31421 1.069008,0.99491 1.069008,1.50218 0,0.50728 -0.484411,1.18798 -1.069008,1.50219 -0.532175,0.28604 -1.039458,0.29205 -24.644012,0.29205 -23.604558,0 -24.111841,-0.006 -24.644013,-0.29205 z m -15.953957,-6.58298 c -0.584593,-0.31421 -1.069007,-0.99491 -1.069007,-1.50218 0,-0.50727 0.484414,-1.18797 1.069007,-1.50219 0.528118,-0.28386 0.966103,-0.29206 15.614696,-0.29261 16.636393,-5.6e-4 15.731379,-0.0525 16.41914,0.94179 0.419601,0.60663 0.419601,1.09938 0,1.70602 -0.687761,0.99431 0.217253,0.9424 -16.41914,0.94179 -14.648593,-5.4e-4 -15.086578,-0.009 -15.614696,-0.29262 z m 34.453754,0 c -0.584597,-0.31421 -1.069008,-0.99491 -1.069008,-1.50218 0,-0.50727 0.484411,-1.18797 1.069008,-1.50219 0.52864,-0.28414 0.972356,-0.29206 16.378449,-0.29261 17.480355,-5.6e-4 16.493627,-0.0547 17.182886,0.94179 0.18222,0.26344 0.331307,0.64729 0.331307,0.85301 0,0.20572 -0.149087,0.58957 -0.331307,0.85301 -0.689259,0.99648 0.297469,0.9424 -17.182886,0.94179 -15.406093,-5.4e-4 -15.849809,-0.008 -16.378449,-0.29262 z M 9.4384784,255.09016 c -0.5845931,-0.31422 -1.0690074,-0.99492 -1.0690074,-1.50219 0,-0.50727 0.4844143,-1.18797 1.0690074,-1.50218 0.5216838,-0.2804 0.9192236,-0.29206 9.9629836,-0.29206 9.04376,0 9.4413,0.0117 9.962983,0.29206 0.584593,0.31421 1.069008,0.99491 1.069008,1.50218 0,0.50727 -0.484415,1.18797 -1.069008,1.50219 -0.521683,0.28039 -0.919223,0.29205 -9.962983,0.29205 -9.04376,0 -9.4412998,-0.0117 -9.9629836,-0.29205 z m 22.7428716,0 c -0.584593,-0.31422 -1.069008,-0.99492 -1.069008,-1.50219 0,-0.50727 0.484415,-1.18797 1.069008,-1.50218 0.526488,-0.28299 0.949109,-0.29206 13.612024,-0.29206 12.662919,0 13.085537,0.009 13.612027,0.29206 0.584596,0.31421 1.069008,0.99491 1.069008,1.50218 0,0.50727 -0.484412,1.18797 -1.069008,1.50219 -0.52649,0.28298 -0.949108,0.29205 -13.612027,0.29205 -12.662915,0 -13.085536,-0.009 -13.612024,-0.29205 z"
       style="fill:#ff8080;fill-opacity:1;stroke-width:1"
       sodipodi:nodetypes="csccsscccscscscsccccccccccccscccccscccscccccccscscscsccscscscsccsccccsccscccscsccscscscsccscscscsc" />
    <rect
       rx="2.7937951"
       style="opacity:1;fill:none;fill-opacity:1;stroke:#1e86fe;stroke-width:1.89999986;stroke-linejoin:bevel;stroke-miterlimit:4;stroke-dasharray:none;stroke-dashoffset:0;stroke-opacity:1"
       id="rect4763"
       width="86.36937"
       height="52.743862"
       x="3.9838805"
       y="239.42358"
       ry="2.6982343" />
    <text
       id="text4767"
       y="262.95273"
       x="7.4187155"
       style="font-style:normal;font-variant:normal;font-weight:normal;font-stretch:normal;font-size:4.67429876px;line-height:1;font-family:code;-inkscape-font-specification:code;letter-spacing:0px;word-spacing:0px;fill:#000000;fill-opacity:1;stroke:none;stroke-width:0.26458332"
       xml:space="preserve"
       transform="scale(1.0650879,0.93888965)"><tspan
         style="font-style:normal;font-variant:normal;font-weight:normal;font-stretch:normal;font-family:monospace;-inkscape-font-specification:monospace;stroke-width:0.26458332"
         y="262.95273"
         x="7.4187155"
         id="tspan4765"
         sodipodi:role="line">process i:</tspan></text>
    <text
       xml:space="preserve"
       style="font-style:normal;font-variant:normal;font-weight:normal;font-stretch:normal;font-size:4.67429876px;line-height:1;font-family:code;-inkscape-font-specification:code;letter-spacing:0px;word-spacing:0px;fill:#000000;fill-opacity:1;stroke:none;stroke-width:0.26458332"
       x="20.996666"
       y="249.68459"
       id="text4792"
       transform="scale(1.0650879,0.93888965)"><tspan
         sodipodi:role="line"
         id="tspan4790"
         x="20.996666"
         y="249.68459"
         style="font-style:normal;font-variant:normal;font-weight:normal;font-stretch:normal;font-family:monospace;-inkscape-font-specification:monospace;stroke-width:0.26458332">process j:</tspan></text>
    <g
       id="g1559">
      <path
         sodipodi:nodetypes="cccccccccccccccccccccccccccccccccccccccccccccccccccccccccccccccccccccccccccccccccccccccccccccccccccccccccccccccccccccccccccccccccccccccccccccccccccccccccccccccccccccccccccccccccccccccccccccccccccccccccccccccccccccccccccccccccccccccccccccccccccccccccccccccccccccccccccccccccccccccccccccccccc"
         inkscape:connector-curvature="0"
         id="path856"
         d="m 166.36689,147.60162 c -3.44434,0.0591 -7.34265,1.42681 -8.41277,4.41325 -6.07829,-0.0476 -13.40875,1.2989 -16.83276,5.83845 -2.26539,3.95635 -8.35951,0.70029 -11.87869,2.91922 -4.3037,-2.26154 -9.77869,-3.35896 -14.75852,-2.85444 -2.5009,1.31498 -1.94519,4.44867 -2.47945,6.27775 -1.36878,1.05041 -0.69808,2.8924 -1.63286,4.17639 1.60669,0.69098 2.08062,3.25926 4.33904,2.92326 4.26242,2.47563 0.6513,7.02015 -1.37526,9.6856 -1.98823,2.42843 -4.39348,6.16321 -1.55764,8.66989 1.81975,2.62757 6.12952,3.52612 8.40794,5.97008 2.06577,1.39172 1.23711,4.03914 3.30916,5.56721 2.2772,2.15566 4.65506,4.66117 8.24633,4.84651 2.03177,0.53802 2.20213,2.5778 1.85718,4.06306 1.799,-1.65477 3.15159,1.47821 4.7756,2.18842 1.98068,0.69608 2.229,2.74321 4.52716,3.16826 1.90909,0.50706 7.2607,2.37993 3.58411,-0.26925 -2.25163,-2.36672 3.38987,-2.83205 3.19096,-5.22914 -0.0224,-2.18626 2.5465,0.12792 3.90249,-0.27532 0.68559,0.48217 1.81679,0.52482 2.43362,-0.41299 1.52831,2.85042 1.23121,0.57099 1.42062,-1.09523 0.93883,-1.59816 1.90554,0.73109 1.70281,1.54061 1.33983,2.75381 2.35555,5.65938 1.5364,8.58566 0.42235,1.33858 1.30069,4.16756 3.25849,3.8019 0.41688,-1.78865 -1.42791,-3.76791 -1.0153,-5.75278 0.65566,-5.06315 -4.2638,-9.35916 -2.93783,-14.44103 0.41319,-3.31 0.68621,-6.94595 3.20543,-9.67279 1.2541,1.19849 3.38458,-0.28181 4.69359,1.03653 2.99157,0.8729 5.38816,3.42942 4.33663,6.06725 1.17635,2.36675 0.56145,6.41376 -2.94977,7.09161 -3.1433,1.5463 1.10594,0.72074 2.54938,0.84824 -0.31138,3.8945 -2.60432,7.61531 -5.46056,10.4684 -0.43769,1.85195 -0.88422,4.26955 0.9117,5.72512 3.01124,-1.82525 1.27291,-6.30422 4.75148,-7.59773 1.02282,-1.56152 0.30093,-4.02782 1.7824,-5.11982 2.40662,1.37516 3.50834,4.178 4.80213,6.11787 -0.86753,1.16908 0.95391,3.07308 1.65216,1.23289 0.31455,-1.3382 -0.49801,-2.99715 2.05736,-2.9152 3.51795,-0.57928 5.22451,3.43116 2.78818,5.29594 -0.66645,0.87215 -0.88203,3.79607 1.04919,2.41718 0.91618,-0.95325 1.00597,-2.66461 2.50356,-1.27944 1.92455,-0.0621 4.92257,-0.0642 5.69454,1.62158 -1.4262,1.8889 -2.63297,0.94935 -1.7428,3.67761 1.96829,0.79922 0.47828,-1.25509 1.62421,-0.12778 0.52029,1.7167 0.73917,-1.5831 2.27966,-1.77845 1.26836,-0.64475 3.23797,-1.39063 4.51269,-1.08915 -0.79165,0.75491 -1.43698,3.53463 0.52098,2.27751 0.61095,-1.17319 2.91555,-3.44646 0.69223,-4.1744 -2.59039,-0.78091 -5.39628,0.3193 -7.55413,-1.50214 -1.43923,-1.50841 -3.30801,-0.71021 -5.06744,-1.2916 -1.62476,-1.58339 -2.72541,-5.08767 0.43656,-5.59556 3.27347,-1.48191 6.77452,-2.59814 10.46048,-3.17433 1.02165,0.682 3.45074,3.51955 4.44275,1.5406 -1.48436,-1.88045 4.14113,-2.79831 1.25447,-2.72836 -3.44878,0.37439 -7.13224,-1.79983 -10.23162,-0.0613 -0.62593,-0.97038 -0.58986,-3.44943 -2.80506,-2.66214 -3.51619,-1.22474 -5.7335,-5.94934 -1.58704,-7.7192 1.90767,-2.02905 5.94549,-5.3257 3.06072,-7.92164 -2.75056,-1.28786 -6.65837,-0.79005 -8.90721,1.02031 -3.60265,0.90018 -6.72969,3.18149 -9.9805,4.25741 -2.38894,-2.50666 0.499,-6.29398 3.18131,-7.91961 3.97365,-1.25446 6.22964,-5.50031 10.91875,-5.05095 4.73801,-1.37319 8.00401,-6.39389 13.43196,-5.29589 -0.19263,1.0898 1.1646,4.31662 2.53492,2.64187 -0.54203,-1.8737 2.9894,-2.82619 1.89095,-4.94972 -0.43667,-2.01474 -3.47136,-2.02053 -4.48375,-3.38686 1.00679,-1.59572 4.16318,-2.47303 2.75681,-4.67441 -1.2138,-1.97566 -4.29508,-2.60937 -6.73165,-2.26938 1.50423,-1.43287 1.56619,-4.22097 -0.78629,-4.89101 -1.87648,-1.97166 -3.51234,-4.55315 -6.88843,-4.72096 -3.4572,-1.31191 -8.19214,-0.53364 -11.04176,0.24698 0.22965,-3.42387 -3.7857,-5.92241 -7.03797,-7.30211 -2.25516,-0.75386 -4.7074,-1.09933 -7.13203,-1.01829 z m 0.13506,6.95796 c 2.37664,-0.16727 0.56785,2.95554 0.39555,3.96787 -0.48209,0.59203 -1.08872,4.12485 -1.29519,2.16412 0.16978,-1.6875 -1.66583,-5.39524 0.89964,-6.13199 z m 5.06985,0.96767 c 0.33862,1.60791 1.98629,1.64758 2.76165,2.83218 -0.22407,3.07742 -2.58422,5.84999 -2.25274,9.00869 -1.44944,3.40691 -5.17531,6.92022 -7.27675,9.29617 -3.30185,-4.8456 2.09133,-9.58806 3.44421,-14.22767 1.32632,-2.21113 1.62259,-4.92075 3.32363,-6.90937 z m -13.05329,0.63973 c -0.54193,0.20157 -0.31397,-0.2805 0,0 z m 2.56627,0.17815 c 0.64323,1.23829 -0.95448,1.55115 0,0 z m -2.82676,1.35231 c 0.89859,-1.17695 1.024,3.18247 3.02455,1.63573 1.36317,-1.56505 2.10803,1.77388 2.41914,2.69856 0.37878,1.79952 -0.10793,4.38073 -0.75492,5.63398 -0.71786,-2.74942 -1.51296,-5.72976 -4.52476,-7.3183 -0.7339,-0.74665 -2.61944,-3.05744 -0.4848,-3.24312 l 0.25522,0.4719 z m 19.16268,-0.0263 c 0.13008,1.0058 -0.76704,-0.3008 0,0 z m -29.45674,0.87253 c -0.39671,0.75324 -0.48617,-0.45925 0,0 z m 4.44516,0.78953 c 1.03699,4.65876 -1.54515,-1.6681 0,0 z m -0.57644,-0.31581 c 0.0147,0.1903 -0.11522,-0.0546 0,0 z m -3.11379,0.28544 c -0.0574,0.2085 -0.22126,-0.022 0,0 z m 30.49869,0.58912 c 2.80341,-1.22115 1.8283,0.94179 1.07571,2.10944 -1.94915,3.48177 1.18073,7.19811 0.19055,10.82663 -0.40393,4.81604 -2.89428,9.24887 -5.85855,13.28025 -1.14532,1.88581 -0.14739,5.25061 -2.87742,6.04494 -2.22875,-1.17118 -4.71707,-1.9166 -7.09827,-2.73905 -0.73141,-1.29235 0.11571,-2.68305 -0.93582,-3.9861 -0.27304,-3.65529 3.08197,-6.66822 4.92225,-9.75258 2.3709,-2.96132 4.61454,-5.99601 6.67665,-9.11711 -2.3852,-2.25436 1.35487,-4.72484 1.62805,-7.14014 0.63066,1.14945 2.11956,0.81805 2.69652,-0.0992 l -0.3234,0.44148 z m 7.2261,-0.21662 c -0.36993,1.07596 1.41738,1.47688 0.3642,2.19853 -0.0895,-0.36722 -0.84356,-2.39376 -0.3642,-2.19853 z m -33.47741,0.15183 c -0.46398,0.52788 -0.4116,-0.94939 0,0 z m -1.75346,0.72475 c -0.78555,-0.11739 0.95947,-1.14068 0,0 z m 4.03273,-0.34213 c 4.02133,1.68943 5.7627,5.97255 6.20345,9.43179 -0.88576,1.52205 0.94801,3.66851 -0.26532,4.8728 -3.4432,-1.43774 -2.40814,-5.58965 -5.03483,-7.7522 -1.35259,-1.70747 -3.38994,-3.49595 -3.78072,-5.45718 1.04577,0.40645 1.62723,-1.3459 2.87742,-1.09521 z m 34.82325,0.11944 c 0.39025,1.29981 -1.93659,3.35564 -2.20932,3.65409 0.37776,-1.31425 1.28844,-2.69331 2.20932,-3.65409 z m -42.72228,-0.0162 c 1.74891,-0.0296 2.42012,2.796 1.25902,2.95971 0.36889,-1.22451 -1.7645,-2.18634 -1.25902,-2.95971 z m 37.10252,0.12349 c 0.0202,1.60221 -0.45713,-0.0241 0,0 z m -39.2853,0.31581 c -0.21537,0.0564 0.23365,-0.15806 0,0 z m 46.72123,0.25305 c -0.42789,0.80258 -0.16634,0.011 0,0 z m -48.99566,0.81382 c 0.39789,1.65042 4.35873,-0.65154 3.55515,1.79769 -2.87164,4.39858 0.15992,9.45938 0.0289,13.99486 -2.34299,2.84571 -9.76866,0.91404 -7.99067,-2.96376 0.67533,-3.22188 3.73808,-6.5568 1.79929,-9.84074 -0.5095,-1.48689 1.20183,-2.3422 2.71098,-2.42728 -1.10328,-0.4813 -0.96339,-0.54183 -0.10372,-0.56077 z m 51.28457,0.31783 c 0.29611,1.31095 -1.00301,1.88164 -1.6184,3.0326 -2.50931,1.96919 -4.06438,4.78349 -6.58935,6.64416 -1.08982,-3.03911 2.7092,-5.244 4.38968,-7.5511 0.845,1.18346 0.19573,-1.79348 1.75347,-1.16001 0.62163,-0.2379 1.76556,-1.20507 2.0646,-0.96565 z m -7.75673,0.65996 c -0.41624,1.46482 -0.38852,2.73415 -1.5412,3.9699 -1.09991,2.22481 -0.64062,4.9123 -2.43846,6.89116 0.89479,-3.70961 1.66199,-7.58722 3.97966,-10.86106 z m -48.25521,0.13969 c 0.0669,0.69308 -0.75643,-0.008 0,0 z m 12.77111,0.35631 c 3.17862,3.26994 5.45359,7.05067 6.59899,11.13231 1.41787,1.8337 5.45823,1.77887 5.05538,4.57115 0.20535,2.41721 -1.99915,6.73988 -5.53293,5.48215 -2.05736,-1.76724 -3.76686,-3.83011 -6.70754,-4.70072 -3.3027,-1.4914 -0.93769,-5.02829 -2.27975,-7.41553 -0.59676,-2.29029 -1.4247,-5.2342 0.24651,-7.18058 1.93433,1.02594 2.85941,-0.55201 2.61934,-1.88878 z m -13.22454,2.11552 c -0.6084,0.95685 -0.66505,4.03834 0.97441,2.54672 -0.23642,1.57905 -1.55329,4.44278 -1.98501,5.03678 -0.11336,-1.62133 -1.72814,-2.88236 -0.61262,-4.58128 0.54538,-1.09945 0.79279,-2.65752 0.70669,-3.64396 0.93479,-0.0982 1.49399,-0.84203 0.91653,0.64174 z m -22.16793,-0.44133 c -0.10151,0.89676 -0.88137,-0.1421 0,0 z m 14.83088,0.002 c 2.20274,0.41864 1.53233,3.1003 2.78646,4.37964 0.83926,2.15018 1.74565,4.27356 2.5101,6.3478 -0.98304,2.22315 -5.15391,3.30208 -7.4914,2.3706 -0.83996,-2.71613 -0.47928,-5.90639 1.55086,-8.2212 -2.98327,0.11708 0.69983,-1.96797 1.2156,-2.77346 -0.1949,-1.24019 -1.81411,-0.11449 -1.08778,-1.99608 -0.1347,-0.27931 0.37676,-0.0638 0.51616,-0.1073 z m 65.29057,0.18625 c 0.50638,1.04647 3.08144,0.12252 2.18278,1.31385 -0.29401,1.26229 3.75944,1.65998 1.18184,2.35441 -4.89839,0.0662 -8.43305,3.4164 -11.42284,6.12996 -2.27275,1.92366 -3.78399,4.81609 -4.82383,7.13813 1.42061,2.56749 -3.30689,3.2877 -5.05055,4.54484 1.1353,-2.58603 3.31662,-4.84376 3.62752,-7.75153 0.90472,-3.9579 6.19227,-5.14229 8.56954,-8.32647 1.83765,-1.40241 2.62764,-4.01896 4.91066,-4.48208 0.30002,-0.26932 0.55775,-0.6691 0.82488,-0.92111 z m -71.79068,0.23281 c -0.86091,-0.21658 0.64617,-0.44759 0,0 z m 3.94588,0.006 c -0.0266,0.41625 -0.32034,-0.42445 0,0 z m -13.65868,0.62352 c 0.41755,0.72394 0.87376,2.65485 1.19631,3.23098 -1.71162,-0.66815 -2.10228,-1.90338 -1.34825,-3.30386 z m 7.25988,0.0891 c 1.35533,0.85439 2.01266,2.04096 0.89964,3.13381 0.0284,2.43394 1.54495,4.76616 1.33861,7.20899 0.84264,2.48278 -3.83894,3.47697 -5.60288,2.40906 -0.74252,-3.58722 3.81191,-7.08117 1.93677,-10.57155 -1.30573,-0.33087 0.85018,-1.96003 1.42786,-2.18031 z m 4.80936,0.59517 c 0.59043,1.6293 0.82957,3.78805 -0.35697,5.31818 -0.77829,1.93372 0.85223,4.1603 0.0266,5.91335 -0.59655,-3.6393 -1.21257,-7.42811 -0.45586,-11.07362 0.25842,-0.0606 0.51036,-0.17203 0.78629,-0.15791 z m 7.76878,1.46164 c 0.0595,0.17228 -0.2626,1.088 0,0 z m -16.83276,0.11337 c -0.54593,0.60858 -0.81822,0.11435 0,0 z m 83.61872,1.5082 c 1.04425,0.99989 -0.41247,2.92239 0.17124,3.99825 -0.759,0.83068 0.004,2.2587 -1.97295,2.13374 -4.43189,1.17419 -6.26472,6.27455 -11.50483,5.86678 -1.19842,0.47691 -2.85585,0.15313 -1.739,-1.1276 1.77364,-2.8644 3.325,-5.85606 6.88844,-7.43774 2.43299,-1.51255 5.07665,-3.11313 8.1571,-3.43343 z m -64.61283,8.91962 c 1.34531,0.79429 4.25856,1.20842 3.19575,3.01435 -0.7535,5.19505 -1.38763,10.58817 -0.0506,15.70761 0.0836,2.56196 -3.62679,1.38717 -5.4847,1.52238 -6.3723,-2.52167 -6.97365,-9.71311 -12.61915,-12.86327 -2.81698,-0.72839 -2.29278,-4.01889 0.45826,-4.52663 2.41421,-0.69203 5.04283,-2.12589 7.30088,-0.73081 1.81901,0.39867 4.31242,-2.25438 4.60435,0.51218 0.10052,1.37762 2.48641,1.6017 1.87647,-0.002 -0.24798,-0.85306 -0.82577,-2.47314 0.71875,-2.63378 z m 10.02876,1.89284 c 2.2743,-0.32801 3.83871,1.37886 4.86,2.51433 2.06137,0.17907 -1.45324,1.84555 -1.2833,2.94829 -0.59939,2.60398 2.53879,-2.41951 4.29579,-1.03722 1.7119,1.96222 -1.19822,4.5772 -1.89834,6.54535 -2.17718,3.55544 -4.7302,7.28533 -6.63019,10.81624 -1.60348,-0.77491 -5.80375,-0.54123 -4.52801,-2.98546 0.50894,-3.31667 0.81129,-6.60511 0.95113,-9.96287 -0.20279,-2.8107 -2.13654,-6.2224 0.38831,-8.62002 1.26665,-0.0247 2.53973,-0.12113 3.84461,-0.21864 z m -31.43693,4.94163 c 4.09708,-1.52247 5.61773,3.38359 8.06787,5.16635 1.49663,1.81414 4.37399,4.63685 4.58264,6.08951 -1.57766,-1.01506 -4.11093,0.0404 -4.6333,-2.03861 -2.02517,-2.65403 -5.01624,-4.94937 -8.20051,-6.36483 -0.66824,-1.01186 -3.0096,-1.70029 -0.58851,-2.52041 1.66079,-0.36314 -0.81859,-0.66101 0.77181,-0.33201 z m 45.71788,1.01019 c 3.38217,2.76779 -0.53822,6.72257 -2.27926,9.38124 -1.58183,2.32193 1.1063,5.44208 -1.6208,7.41553 3.06491,1.6785 -1.42659,4.7977 -3.59859,4.08532 -1.16485,-0.40877 -2.63734,-0.63568 -3.65405,-0.24698 -2.44202,-4.51817 2.23905,-8.61712 4.02066,-12.69933 1.95931,-2.63685 3.53289,-6.78034 7.13204,-7.93578 z m -49.62278,1.38673 c -0.71737,-0.16036 0.86282,-0.64106 0,0 z m 81.30089,3.82822 c 3.15877,0.34522 1.04955,3.25718 -0.39748,4.30811 -2.2587,2.34985 -6.94605,5.77715 -3.63766,8.86897 1.46455,1.80859 4.23609,2.79372 5.68248,4.34446 -1.76418,2.31834 -5.36958,2.8922 -8.24876,3.76951 -1.9956,0.0779 -4.65335,0.19248 -6.22274,0.65997 -1.75905,-2.93589 -5.82128,-6.05462 -4.03032,-9.59181 0.23514,-1.25495 4.32219,-1.38806 2.27927,-2.80993 -0.78698,-0.45522 -2.37878,0.91603 -1.74865,-0.49194 -0.71741,-3.31132 3.72072,-3.88825 6.2927,-5.36275 3.3811,-1.09861 6.28524,-3.78867 10.03116,-3.69459 z m -67.68079,6.42152 c 1.90205,0.0474 1.52316,0.9056 2.44086,1.80782 1.37716,0.15641 1.69292,-2.24933 3.14755,-0.57088 1.22745,0.95589 3.06627,3.45238 2.19002,4.24525 -1.90071,-0.83676 -5.03601,-0.84693 -5.40028,-2.94758 -0.66265,-0.92151 -2.6504,-1.39194 -2.37815,-2.53461 z m 11.84492,2.96581 c 0.92632,1.52132 2.46859,-0.24903 3.06796,1.09725 1.94488,1.78919 4.79445,2.91759 7.31294,3.91932 0.53395,2.27345 -0.95995,5.35512 -3.17168,6.47821 -2.19518,-0.55197 -1.91815,-4.34343 -4.3318,-3.90515 -2.16322,-1.84429 -4.66853,-4.94263 -3.4418,-7.37503 0.19063,-0.0649 0.35081,-0.21624 0.56438,-0.2146 z"
         style="fill:#d4aa00;stroke-width:4;stroke-miterlimit:4;stroke-dasharray:none" />
      <rect
         rx="2.7937953"
         style="opacity:1;fill:none;fill-opacity:1;stroke:#1e86fe;stroke-width:1.89999986;stroke-linejoin:bevel;stroke-miterlimit:4;stroke-dasharray:none;stroke-dashoffset:0;stroke-opacity:1"
         id="rect4810"
         width="86.36937"
         height="52.743862"
         x="128.8658"
         y="226.71019"
         ry="2.6982343" />
      <rect
         style="opacity:1;fill:#ffffff;fill-opacity:1;stroke:none;stroke-width:1.5;stroke-linejoin:round;stroke-miterlimit:4;stroke-dasharray:none;stroke-dashoffset:0;stroke-opacity:1"
         id="rect4826"
         width="78.520317"
         height="50.655907"
         x="124.36792"
         y="237.58122"
         rx="2.7937884"
         ry="2.6982472" />
      <text
         xml:space="preserve"
         style="font-style:normal;font-variant:normal;font-weight:normal;font-stretch:normal;font-size:7.76111126px;line-height:1;font-family:code;-inkscape-font-specification:code;letter-spacing:0px;word-spacing:0px;fill:#000000;fill-opacity:1;stroke:none;stroke-width:0.26458332"
         x="138.64911"
         y="140.25711"
         id="text840"><tspan
           sodipodi:role="line"
           id="tspan838"
           x="138.64911"
           y="140.25711"
           style="font-style:normal;font-variant:normal;font-weight:normal;font-stretch:normal;font-family:monospace;-inkscape-font-specification:monospace;stroke-width:0.26458332">Physarum</tspan></text>
      <ellipse
         ry="6.0735817"
         rx="6.9516897"
         cy="192.43211"
         cx="174.34158"
         id="circle4563"
         style="opacity:1;fill:none;fill-opacity:1;stroke:#1e86fe;stroke-width:1.5;stroke-linejoin:bevel;stroke-miterlimit:4;stroke-dasharray:none;stroke-dashoffset:0;stroke-opacity:1" />
      <ellipse
         style="opacity:1;fill:none;fill-opacity:1;stroke:#1e86fe;stroke-width:1.5;stroke-linejoin:bevel;stroke-miterlimit:4;stroke-dasharray:none;stroke-dashoffset:0;stroke-opacity:1"
         id="ellipse4565"
         cx="147.49004"
         cy="178.42877"
         rx="6.9516897"
         ry="6.0735817" />
      <path
         style="fill:none;stroke:#1e86fe;stroke-width:1.5;stroke-linecap:butt;stroke-linejoin:round;stroke-miterlimit:4;stroke-dasharray:none;stroke-opacity:1"
         d="m 140.95294,180.1317 -18.17421,13.83127 -0.0365,45.8784"
         id="path4808"
         inkscape:connector-curvature="0"
         sodipodi:nodetypes="ccc" />
      <path
         sodipodi:nodetypes="ccc"
         inkscape:connector-curvature="0"
         id="path4812"
         d="m 167.01997,193.43439 -16.63495,13.75038 -0.0365,18.98308"
         style="fill:none;stroke:#1e86fe;stroke-width:1.5;stroke-linecap:butt;stroke-linejoin:round;stroke-miterlimit:4;stroke-dasharray:none;stroke-opacity:1" />
      <text
         id="text4818"
         y="263.22568"
         x="112.1633"
         style="font-style:normal;font-variant:normal;font-weight:normal;font-stretch:normal;font-size:4.67429876px;line-height:1;font-family:code;-inkscape-font-specification:code;letter-spacing:0px;word-spacing:0px;fill:#000000;fill-opacity:1;stroke:none;stroke-width:0.26458332"
         xml:space="preserve"
         transform="scale(1.0650879,0.93888965)"><tspan
           style="font-style:normal;font-variant:normal;font-weight:normal;font-stretch:normal;font-family:monospace;-inkscape-font-specification:monospace;stroke-width:0.26458332"
           y="263.22568"
           x="112.1633"
           id="tspan4816"
           sodipodi:role="line">process i:</tspan></text>
      <text
         xml:space="preserve"
         style="font-style:normal;font-variant:normal;font-weight:normal;font-stretch:normal;font-size:4.67429876px;line-height:1;font-family:code;-inkscape-font-specification:code;letter-spacing:0px;word-spacing:0px;fill:#000000;fill-opacity:1;stroke:none;stroke-width:0.26458332"
         x="125.52855"
         y="249.49382"
         id="text4822"
         transform="scale(1.0650879,0.93888965)"><tspan
           sodipodi:role="line"
           id="tspan4820"
           x="125.52855"
           y="249.49382"
           style="font-style:normal;font-variant:normal;font-weight:normal;font-stretch:normal;font-family:monospace;-inkscape-font-specification:monospace;stroke-width:0.26458332">process j:</tspan></text>
      <rect
         rx="2.7937951"
         style="opacity:1;fill:none;fill-opacity:1;stroke:#1e86fe;stroke-width:1.89999986;stroke-linejoin:bevel;stroke-miterlimit:4;stroke-dasharray:none;stroke-dashoffset:0;stroke-opacity:1"
         id="rect4824"
         width="86.36937"
         height="52.743862"
         x="114.36565"
         y="239.63153"
         ry="2.6982343" />
    </g>
    <g
       style="fill:#d4aa00;fill-opacity:1"
       transform="translate(-105.04492,121.25233)"
       id="g4880">
      <path
         inkscape:connector-curvature="0"
         id="path4814"
         d="m 232.75597,166.21312 c -0.5846,-0.31421 -1.06901,-0.99491 -1.06901,-1.50218 0,-0.50728 0.48441,-1.18798 1.06901,-1.50219 0.52812,-0.28386 0.96611,-0.29207 15.6147,-0.29261 16.63639,-5.7e-4 15.73137,-0.0525 16.41913,0.94179 0.41961,0.60663 0.41961,1.09938 0,1.70601 -0.68776,0.99432 0.21726,0.94241 -16.41913,0.94179 -14.64859,-5.6e-4 -15.08658,-0.009 -15.6147,-0.29261 z m 33.38475,-1.50218 c -177.427147,88.19271 -88.71357,44.09635 0,0 z m -40.90323,-5.04654 c -1.54583,-0.68891 -1.47954,-2.69043 0.1085,-3.27534 0.48512,-0.17868 1.57741,-0.21 6.08467,-0.17452 5.26645,0.0414 5.5132,0.0562 5.97231,0.35603 0.26338,0.17204 0.58806,0.58507 0.7215,0.91786 0.21036,0.52464 0.21034,0.67983 -1.2e-4,1.16729 -0.1335,0.3092 -0.45818,0.70408 -0.72151,0.87749 -0.46086,0.3035 -0.68632,0.31681 -6.02504,0.35561 -5.02433,0.0365 -5.60218,0.0154 -6.14031,-0.22442 z m 14.93562,-0.002 c -1.10532,-0.48868 -1.45925,-1.74174 -0.75831,-2.68476 0.61768,-0.831 -0.17901,-0.80165 20.60317,-0.75904 l 19.16659,0.0393 0.47903,0.3153 c 0.26347,0.17341 0.58826,0.56829 0.72177,0.87749 0.21046,0.48746 0.21048,0.64266 1.2e-4,1.16729 -0.13345,0.3328 -0.45824,0.74583 -0.72177,0.91786 -0.4786,0.31242 -0.50104,0.31282 -19.68786,0.35099 -18.02826,0.0358 -19.24522,0.0221 -19.80274,-0.22443 z m -7.58686,-6.76474 c -0.5846,-0.31421 -1.06901,-0.99491 -1.06901,-1.50218 0,-0.50727 0.48441,-1.18797 1.06901,-1.50219 0.52935,-0.28452 0.98208,-0.29207 17.56651,-0.29261 18.79334,-5.6e-4 17.6796,-0.0577 18.37095,0.94179 0.4196,0.60663 0.4196,1.09938 0,1.70602 -0.69135,0.9995 0.42239,0.9424 -18.37095,0.94179 -16.58443,-5.7e-4 -17.03716,-0.008 -17.56651,-0.29262 z m 38.18765,0 c -0.58459,-0.31421 -1.069,-0.99491 -1.069,-1.50218 0,-0.50727 0.48441,-1.18797 1.069,-1.50219 0.52665,-0.28307 0.9505,-0.29205 13.78175,-0.29205 12.83125,0 13.2551,0.009 13.78175,0.29205 0.58459,0.31422 1.06901,0.99492 1.06901,1.50219 0,0.50727 -0.48442,1.18797 -1.06901,1.50218 -0.52665,0.28308 -0.9505,0.29206 -13.78175,0.29206 -12.83125,0 -13.2551,-0.009 -13.78175,-0.29206 z m -38.1087,-13.57711 c -0.5846,-0.31421 -1.06901,-0.99491 -1.06901,-1.50219 0,-0.50727 0.48441,-1.18797 1.06901,-1.50218 0.53218,-0.28604 1.03946,-0.29206 24.64402,-0.29206 23.60455,0 24.11183,0.006 24.64401,0.29206 0.5846,0.31421 1.06901,0.99491 1.06901,1.50218 0,0.50728 -0.48441,1.18798 -1.06901,1.50219 -0.53218,0.28604 -1.03946,0.29205 -24.64401,0.29205 -23.60456,0 -24.11184,-0.006 -24.64402,-0.29205 z m -0.0789,6.64619 c -0.5846,-0.31421 -1.06901,-0.99491 -1.06901,-1.50218 0,-0.50727 0.48441,-1.18797 1.06901,-1.50219 0.52811,-0.28386 0.9661,-0.29206 15.61469,-0.29261 16.6364,-5.6e-4 15.73138,-0.0525 16.41914,0.94179 0.4196,0.60663 0.4196,1.09938 0,1.70602 -0.68776,0.99431 0.21726,0.9424 -16.41914,0.94179 -14.64859,-5.4e-4 -15.08658,-0.009 -15.61469,-0.29262 z m 34.45375,0 c -0.5846,-0.31421 -1.06901,-0.99491 -1.06901,-1.50218 0,-0.50727 0.48441,-1.18797 1.06901,-1.50219 0.52864,-0.28414 0.97236,-0.29206 16.37845,-0.29261 17.48035,-5.6e-4 16.49363,-0.0547 17.18289,0.94179 0.18222,0.26344 0.3313,0.64729 0.3313,0.85301 0,0.20572 -0.14908,0.58957 -0.3313,0.85301 -0.68926,0.99648 0.29746,0.9424 -17.18289,0.94179 -15.40609,-5.4e-4 -15.84981,-0.008 -16.37845,-0.29262 z m -41.92156,-12.66865 c -0.5846,-0.31422 -1.06901,-0.99492 -1.06901,-1.50219 0,-0.50727 0.48441,-1.18797 1.06901,-1.50218 0.52168,-0.2804 0.91922,-0.29206 9.96298,-0.29206 9.04376,0 9.4413,0.0117 9.96298,0.29206 0.5846,0.31421 1.06901,0.99491 1.06901,1.50218 0,0.50727 -0.48441,1.18797 -1.06901,1.50219 -0.52168,0.28039 -0.91922,0.29205 -9.96298,0.29205 -9.04376,0 -9.4413,-0.0117 -9.96298,-0.29205 z m 22.74287,0 c -0.58459,-0.31422 -1.06901,-0.99492 -1.06901,-1.50219 0,-0.50727 0.48442,-1.18797 1.06901,-1.50218 0.52649,-0.28299 0.94911,-0.29206 13.61202,-0.29206 12.66292,0 13.08554,0.009 13.61203,0.29206 0.5846,0.31421 1.06901,0.99491 1.06901,1.50218 0,0.50727 -0.48441,1.18797 -1.06901,1.50219 -0.52649,0.28298 -0.94911,0.29205 -13.61203,0.29205 -12.66291,0 -13.08553,-0.009 -13.61202,-0.29205 z"
         style="fill:#d4aa00;fill-opacity:1;stroke-width:1"
         sodipodi:nodetypes="csccsscccccccccccccccscccccscccscccccscscscscsscscscscsscsccccsscscccscsscscscscsscscscscs" />
      <path
         sodipodi:nodetypes="ccccccccc"
         style="fill:#d4aa00;fill-opacity:1;stroke-width:1"
         d="m 267.72821,166.29842 c -1.54583,-0.68891 -1.47954,-2.69043 0.1085,-3.27534 0.48512,-0.17868 1.57741,-0.21 6.08467,-0.17452 5.26645,0.0414 5.5132,0.0562 5.97231,0.35603 0.26338,0.17204 0.58806,0.58507 0.7215,0.91786 0.21036,0.52464 0.21034,0.67983 -1.2e-4,1.16729 -0.1335,0.3092 -0.45818,0.70408 -0.72151,0.87749 -0.46086,0.3035 -0.68632,0.31681 -6.02504,0.35561 -5.02433,0.0365 -5.60218,0.0154 -6.14031,-0.22442 z"
         id="path4872"
         inkscape:connector-curvature="0" />
    </g>
    <g
       id="g1408"
       transform="translate(392.40049,8.9882771)">
      <g
         id="g1365"
         transform="translate(-82.231692,-42.244378)"
         style="stroke-width:0.70300001;stroke-miterlimit:4.19999981;stroke-dasharray:none;stroke-dashoffset:0">
        <path
           id="path5161"
           style="fill:none;fill-rule:evenodd;stroke:#000000;stroke-width:0.70300001;stroke-linecap:butt;stroke-linejoin:miter;stroke-miterlimit:4.19999981;stroke-dasharray:none;stroke-dashoffset:0;stroke-opacity:1"
           d="m -86.980299,239.50433 h 7.504336 v -6.60932 l 10.96068,6.32816 -10.954869,6.36972 v -6.0813"
           inkscape:connector-curvature="0" />
        <g
           id="g1359"
           style="stroke-width:0.70300001;stroke-miterlimit:4.19999981;stroke-dasharray:none;stroke-dashoffset:0">
          <path
             inkscape:connector-curvature="0"
             d="m -63.817052,239.24395 a 2.1524082,2.1524082 0 1 1 -4.304815,0 2.1524082,2.1524082 0 1 1 4.304815,0 z"
             style="fill:none;stroke:#000000;stroke-width:0.70300001;stroke-linecap:butt;stroke-linejoin:miter;stroke-miterlimit:4.19999981;stroke-dasharray:none;stroke-dashoffset:0;stroke-opacity:1"
             id="path5163" />
          <path
             inkscape:connector-curvature="0"
             d="m -58.55819,239.24395 h -5.389442"
             style="fill:none;fill-rule:evenodd;stroke:#000000;stroke-width:0.70300001;stroke-linecap:butt;stroke-linejoin:miter;stroke-miterlimit:4.19999981;stroke-dasharray:none;stroke-dashoffset:0;stroke-opacity:1"
             id="path5165"
             sodipodi:nodetypes="cc" />
        </g>
      </g>
      <g
         id="g1372"
         transform="translate(-82.141839,-23.890568)"
         style="stroke-width:0.70300001;stroke-miterlimit:4.19999981;stroke-dasharray:none;stroke-dashoffset:0">
        <path
           id="path6144"
           style="fill:none;fill-rule:evenodd;stroke:#000000;stroke-width:0.70300001;stroke-linecap:butt;stroke-linejoin:miter;stroke-miterlimit:4.19999981;stroke-dasharray:none;stroke-dashoffset:0;stroke-opacity:1"
           d="m -81.744142,195.12397 c 13.981509,0 15.520462,6.31341 15.520462,6.31341 h -0.0376 c -2.001363,7.46919 -15.520461,6.27583 -15.520461,6.27583 6.463728,-6.31341 0.0376,-12.58924 0.0376,-12.58924 z"
           inkscape:connector-curvature="0" />
        <path
           id="path6146"
           style="fill:none;fill-rule:evenodd;stroke:#000000;stroke-width:0.70300001;stroke-linecap:butt;stroke-linejoin:miter;stroke-miterlimit:4.19999981;stroke-dasharray:none;stroke-dashoffset:0;stroke-opacity:1"
           d="m -86.587602,198.75288 h 6.877107"
           inkscape:connector-curvature="0" />
        <path
           id="path6148"
           style="fill:none;fill-rule:evenodd;stroke:#000000;stroke-width:0.70300001;stroke-linecap:butt;stroke-linejoin:miter;stroke-miterlimit:4.19999981;stroke-dasharray:none;stroke-dashoffset:0;stroke-opacity:1"
           d="m -86.587602,204.67717 h 6.877107"
           inkscape:connector-curvature="0" />
        <path
           id="path6150"
           style="fill:none;stroke:#000000;stroke-width:0.70300001;stroke-linecap:butt;stroke-linejoin:miter;stroke-miterlimit:4.19999981;stroke-dasharray:none;stroke-dashoffset:0;stroke-opacity:1"
           d="m -63.283178,201.51382 a 1.3990206,1.3990206 0 1 1 -2.79804,0 1.3990206,1.3990206 0 1 1 2.79804,0 z"
           inkscape:connector-curvature="0" />
        <path
           id="path6152"
           style="fill:none;fill-rule:evenodd;stroke:#000000;stroke-width:0.70300001;stroke-linecap:butt;stroke-linejoin:miter;stroke-miterlimit:4.19999981;stroke-dasharray:none;stroke-dashoffset:0;stroke-opacity:1"
           d="m -55.788251,201.51381 h -7.254415"
           inkscape:connector-curvature="0" />
      </g>
      <g
         id="g1355"
         transform="translate(-51.324205,17.877732)"
         style="stroke-width:0.70300001;stroke-miterlimit:4.19999981;stroke-dasharray:none;stroke-dashoffset:0">
        <path
           id="path6160"
           style="fill:none;stroke:#000000;stroke-width:0.70300001;stroke-linecap:butt;stroke-linejoin:miter;stroke-miterlimit:4.19999981;stroke-dasharray:none;stroke-dashoffset:0;stroke-opacity:1"
           d="m -60.758988,162.76623 a 1.3990206,1.3990206 0 1 1 -2.79804,0 1.3990206,1.3990206 0 1 1 2.79804,0 z"
           inkscape:connector-curvature="0" />
        <path
           id="path6162"
           style="fill:none;fill-rule:evenodd;stroke:#000000;stroke-width:0.70300001;stroke-linecap:butt;stroke-linejoin:miter;stroke-miterlimit:4.19999981;stroke-dasharray:none;stroke-dashoffset:0;stroke-opacity:1"
           d="m -53.264062,162.76622 h -7.254414"
           inkscape:connector-curvature="0" />
        <path
           id="path6164"
           style="fill:none;fill-rule:evenodd;stroke:#000000;stroke-width:0.70300001;stroke-linecap:butt;stroke-linejoin:miter;stroke-miterlimit:4.19999981;stroke-dasharray:none;stroke-dashoffset:0;stroke-opacity:1"
           d="m -79.505786,156.83119 v 12.28582 c 21.029018,1.10257 21.518768,-13.46715 0,-12.28582 z"
           inkscape:connector-curvature="0" />
        <path
           id="path6166"
           style="fill:none;fill-rule:evenodd;stroke:#000000;stroke-width:0.70300001;stroke-linecap:butt;stroke-linejoin:miter;stroke-miterlimit:4.19999981;stroke-dasharray:none;stroke-dashoffset:0;stroke-opacity:1"
           d="m -86.60589,159.74551 h 6.877107"
           inkscape:connector-curvature="0" />
        <path
           id="path6168"
           style="fill:none;fill-rule:evenodd;stroke:#000000;stroke-width:0.70300001;stroke-linecap:butt;stroke-linejoin:miter;stroke-miterlimit:4.19999981;stroke-dasharray:none;stroke-dashoffset:0;stroke-opacity:1"
           d="m -89.71737,179.12184 0.155998,-13.06586 9.832589,-0.12872"
           inkscape:connector-curvature="0"
           sodipodi:nodetypes="ccc" />
      </g>
      <g
         transform="translate(-14.870892,1.522111)"
         id="g1384"
         style="stroke-width:0.70300001;stroke-miterlimit:4.19999981;stroke-dasharray:none;stroke-dashoffset:0">
        <path
           inkscape:connector-curvature="0"
           d="m -60.758988,162.76623 a 1.3990206,1.3990206 0 1 1 -2.79804,0 1.3990206,1.3990206 0 1 1 2.79804,0 z"
           style="fill:none;stroke:#000000;stroke-width:0.70300001;stroke-linecap:butt;stroke-linejoin:miter;stroke-miterlimit:4.19999981;stroke-dasharray:none;stroke-dashoffset:0;stroke-opacity:1"
           id="path1374" />
        <path
           inkscape:connector-curvature="0"
           d="m -53.264062,162.76622 h -7.254414"
           style="fill:none;fill-rule:evenodd;stroke:#000000;stroke-width:0.70300001;stroke-linecap:butt;stroke-linejoin:miter;stroke-miterlimit:4.19999981;stroke-dasharray:none;stroke-dashoffset:0;stroke-opacity:1"
           id="path1376" />
        <path
           inkscape:connector-curvature="0"
           d="m -79.505786,156.83119 v 12.28582 c 21.029018,1.10257 21.518768,-13.46715 0,-12.28582 z"
           style="fill:none;fill-rule:evenodd;stroke:#000000;stroke-width:0.70300001;stroke-linecap:butt;stroke-linejoin:miter;stroke-miterlimit:4.19999981;stroke-dasharray:none;stroke-dashoffset:0;stroke-opacity:1"
           id="path1378" />
        <path
           inkscape:connector-curvature="0"
           d="m -89.251747,159.74551 h 9.522964"
           style="fill:none;fill-rule:evenodd;stroke:#000000;stroke-width:0.70300001;stroke-linecap:butt;stroke-linejoin:miter;stroke-miterlimit:4.19999981;stroke-dasharray:none;stroke-dashoffset:0;stroke-opacity:1"
           id="path1380"
           sodipodi:nodetypes="cc" />
        <path
           sodipodi:nodetypes="ccc"
           inkscape:connector-curvature="0"
           d="m -89.71737,179.12184 0.155998,-13.06586 9.832589,-0.12872"
           style="fill:none;fill-rule:evenodd;stroke:#000000;stroke-width:0.70300001;stroke-linecap:butt;stroke-linejoin:miter;stroke-miterlimit:4.19999981;stroke-dasharray:none;stroke-dashoffset:0;stroke-opacity:1"
           id="path1382" />
      </g>
      <g
         transform="translate(-48.334388,-40.246189)"
         id="g1396"
         style="stroke-width:0.70300001;stroke-miterlimit:4.19999981;stroke-dasharray:none;stroke-dashoffset:0">
        <path
           inkscape:connector-curvature="0"
           d="m -81.744142,195.12397 c 13.981509,0 15.520462,6.31341 15.520462,6.31341 h -0.0376 c -2.001363,7.46919 -15.520461,6.27583 -15.520461,6.27583 6.463728,-6.31341 0.0376,-12.58924 0.0376,-12.58924 z"
           style="fill:none;fill-rule:evenodd;stroke:#000000;stroke-width:0.70300001;stroke-linecap:butt;stroke-linejoin:miter;stroke-miterlimit:4.19999981;stroke-dasharray:none;stroke-dashoffset:0;stroke-opacity:1"
           id="path1386" />
        <path
           inkscape:connector-curvature="0"
           d="m -86.587602,198.75288 h 6.877107"
           style="fill:none;fill-rule:evenodd;stroke:#000000;stroke-width:0.70300001;stroke-linecap:butt;stroke-linejoin:miter;stroke-miterlimit:4.19999981;stroke-dasharray:none;stroke-dashoffset:0;stroke-opacity:1"
           id="path1388" />
        <path
           inkscape:connector-curvature="0"
           d="m -86.587602,204.67717 h 6.877107"
           style="fill:none;fill-rule:evenodd;stroke:#000000;stroke-width:0.70300001;stroke-linecap:butt;stroke-linejoin:miter;stroke-miterlimit:4.19999981;stroke-dasharray:none;stroke-dashoffset:0;stroke-opacity:1"
           id="path1390" />
        <path
           inkscape:connector-curvature="0"
           d="m -63.283178,201.51382 a 1.3990206,1.3990206 0 1 1 -2.79804,0 1.3990206,1.3990206 0 1 1 2.79804,0 z"
           style="fill:none;stroke:#000000;stroke-width:0.70300001;stroke-linecap:butt;stroke-linejoin:miter;stroke-miterlimit:4.19999981;stroke-dasharray:none;stroke-dashoffset:0;stroke-opacity:1"
           id="path1392" />
        <path
           inkscape:connector-curvature="0"
           d="m -55.788251,201.51381 h -7.254415"
           style="fill:none;fill-rule:evenodd;stroke:#000000;stroke-width:0.70300001;stroke-linecap:butt;stroke-linejoin:miter;stroke-miterlimit:4.19999981;stroke-dasharray:none;stroke-dashoffset:0;stroke-opacity:1"
           id="path1394" />
      </g>
      <path
         id="path1398"
         style="fill:none;stroke:#000000;stroke-width:0.70300001;stroke-linecap:butt;stroke-linejoin:miter;stroke-miterlimit:4.19999981;stroke-dasharray:none;stroke-dashoffset:0;stroke-opacity:1"
         d="m -76.095536,183.66467 c 0.0017,1.86709 -2.79631,1.86709 -2.79804,0 -0.0017,-1.86709 2.796311,-1.86709 2.79804,0 z"
         inkscape:connector-curvature="0"
         sodipodi:nodetypes="sss" />
      <path
         id="path1400"
         style="fill:none;fill-rule:evenodd;stroke:#000000;stroke-width:0.70300001;stroke-linecap:butt;stroke-linejoin:miter;stroke-miterlimit:4.19999981;stroke-dasharray:none;stroke-dashoffset:0;stroke-opacity:1"
         d="m -68.60061,183.66466 h -7.254414"
         inkscape:connector-curvature="0"
         sodipodi:nodetypes="cc" />
      <path
         id="path1402"
         style="fill:none;fill-rule:evenodd;stroke:#000000;stroke-width:0.70300001;stroke-linecap:butt;stroke-linejoin:miter;stroke-miterlimit:4.19999981;stroke-dasharray:none;stroke-dashoffset:0;stroke-opacity:1"
         d="m -94.842334,177.72963 v 12.28582 c 21.029018,1.10257 21.518768,-13.46715 0,-12.28582 z"
         inkscape:connector-curvature="0"
         sodipodi:nodetypes="ccc" />
      <path
         id="path1404"
         style="fill:none;fill-rule:evenodd;stroke:#000000;stroke-width:0.70300001;stroke-linecap:butt;stroke-linejoin:miter;stroke-miterlimit:4.19999981;stroke-dasharray:none;stroke-dashoffset:0;stroke-opacity:1"
         d="m -104.58827,180.64395 h 9.522939"
         inkscape:connector-curvature="0"
         sodipodi:nodetypes="cc" />
      <path
         id="path1406"
         style="fill:none;fill-rule:evenodd;stroke:#000000;stroke-width:0.70300001;stroke-linecap:butt;stroke-linejoin:miter;stroke-miterlimit:4.19999981;stroke-dasharray:none;stroke-dashoffset:0;stroke-opacity:1"
         d="m -107.54375,186.82555 12.478419,1.5e-4"
         inkscape:connector-curvature="0"
         sodipodi:nodetypes="cc" />
      <circle
         style="opacity:1;fill:#000000;fill-opacity:1;stroke:none;stroke-width:0.70300001;stroke-miterlimit:4.19999981;stroke-dasharray:none;stroke-dashoffset:0;stroke-opacity:1"
         id="path1410"
         cx="-104.53673"
         cy="180.70078"
         r="1.05" />
    </g>
    <text
       xml:space="preserve"
       style="font-style:normal;font-variant:normal;font-weight:normal;font-stretch:normal;font-size:7.76111126px;line-height:1;font-family:code;-inkscape-font-specification:code;letter-spacing:0px;word-spacing:0px;fill:#000000;fill-opacity:1;stroke:none;stroke-width:0.26458332"
       x="252.41936"
       y="140.25711"
       id="text1515"><tspan
         sodipodi:role="line"
         id="tspan1513"
         x="252.41936"
         y="140.25711"
         style="font-style:normal;font-variant:normal;font-weight:normal;font-stretch:normal;font-family:monospace;-inkscape-font-specification:monospace;stroke-width:0.26458332">Circuits</tspan></text>
    <path
       inkscape:connector-curvature="0"
       id="path1517"
       d="m 253.80722,274.13137 c -0.5846,-0.31421 -1.06902,-0.99492 -1.06902,-1.50218 0,-0.50728 0.48442,-1.18798 1.06902,-1.5022 0.52811,-0.28385 0.9661,-0.29206 15.61469,-0.2926 16.63641,-5.7e-4 15.73139,-0.0525 16.41915,0.94178 0.4196,0.60664 0.4196,1.09939 0,1.70602 -0.68776,0.99432 0.21726,0.94241 -16.41915,0.94179 -14.64859,-5.6e-4 -15.08658,-0.009 -15.61469,-0.29261 z m 34.45376,0 c -0.5846,-0.31421 -1.06901,-0.99492 -1.06901,-1.50218 0,-0.50728 0.48441,-1.18798 1.06901,-1.5022 0.52649,-0.28298 0.94911,-0.29205 13.61202,-0.29205 12.66292,0 13.08554,0.009 13.61203,0.29205 0.5846,0.31422 1.069,0.99492 1.069,1.5022 0,0.50726 -0.4844,1.18797 -1.069,1.50218 -0.52649,0.28298 -0.94911,0.29205 -13.61203,0.29205 -12.66291,0 -13.08553,-0.009 -13.61202,-0.29205 z m -41.97224,-6.54872 c -1.54584,-0.68891 -1.47955,-2.69044 0.10849,-3.27534 0.48512,-0.17868 1.57741,-0.21001 6.08467,-0.17452 5.26645,0.0414 5.51321,0.0562 5.97231,0.35603 0.26338,0.17203 0.58806,0.58507 0.7215,0.91786 0.21037,0.52464 0.21035,0.67983 -1.1e-4,1.16728 -0.13351,0.30921 -0.45819,0.70409 -0.72152,0.8775 -0.46086,0.3035 -0.68632,0.3168 -6.02504,0.35561 -5.02433,0.0365 -5.60218,0.0154 -6.1403,-0.22442 z m 14.93561,-0.002 c -1.10532,-0.48868 -1.45925,-1.74174 -0.75831,-2.68476 0.61768,-0.831 -0.17901,-0.80165 20.60318,-0.75904 l 19.1666,0.0393 0.47903,0.3153 c 0.26346,0.17341 0.58826,0.56828 0.72176,0.87749 0.21047,0.48746 0.21048,0.64266 1.2e-4,1.16728 -0.13344,0.3328 -0.45824,0.74584 -0.72177,0.91786 -0.4786,0.31243 -0.50103,0.31283 -19.68786,0.351 -18.02827,0.0358 -19.24523,0.022 -19.80275,-0.22443 z m -7.58686,-6.76474 c -0.58459,-0.31421 -1.06901,-0.99491 -1.06901,-1.50218 0,-0.50727 0.48442,-1.18798 1.06901,-1.50219 0.52936,-0.28452 0.98209,-0.29207 17.56651,-0.29261 18.79336,-5.7e-4 17.67962,-0.0577 18.37096,0.94178 0.41961,0.60664 0.41961,1.09939 0,1.70603 -0.69134,0.99949 0.4224,0.9424 -18.37096,0.94178 -16.58442,-5.6e-4 -17.03715,-0.008 -17.56651,-0.29261 z m 38.18767,0 c -0.5846,-0.31421 -1.06901,-0.99491 -1.06901,-1.50218 0,-0.50727 0.48441,-1.18798 1.06901,-1.50219 0.52665,-0.28307 0.9505,-0.29205 13.78175,-0.29205 12.83124,0 13.2551,0.009 13.78175,0.29205 0.58459,0.31421 1.069,0.99492 1.069,1.50219 0,0.50727 -0.48441,1.18797 -1.069,1.50218 -0.52665,0.28307 -0.95051,0.29205 -13.78175,0.29205 -12.83125,0 -13.2551,-0.009 -13.78175,-0.29205 z m -22.23371,-6.43336 c -0.5846,-0.31421 -1.06902,-0.99492 -1.06902,-1.50219 0,-0.50727 0.48442,-1.18797 1.06902,-1.50219 0.53217,-0.28604 1.03945,-0.29205 24.64402,-0.29205 23.60456,0 24.11184,0.006 24.64402,0.29205 0.58459,0.31422 1.069,0.99492 1.069,1.50219 0,0.50727 -0.48441,1.18798 -1.069,1.50219 -0.53218,0.28604 -1.03946,0.29205 -24.64402,0.29205 -23.60457,0 -24.11185,-0.006 -24.64402,-0.29205 z m -15.95396,-6.58298 c -0.58459,-0.31421 -1.06901,-0.99491 -1.06901,-1.50218 0,-0.50727 0.48442,-1.18797 1.06901,-1.50219 0.52812,-0.28386 0.9661,-0.29206 15.61469,-0.29261 16.63641,-5.6e-4 15.7314,-0.0525 16.41916,0.94179 0.4196,0.60663 0.4196,1.09938 0,1.70602 -0.68776,0.99431 0.21725,0.9424 -16.41916,0.94178 -14.64859,-5.3e-4 -15.08657,-0.009 -15.61469,-0.29261 z m 34.45377,0 c -0.5846,-0.31421 -1.06901,-0.99491 -1.06901,-1.50218 0,-0.50727 0.48441,-1.18797 1.06901,-1.50219 0.52864,-0.28414 0.97235,-0.29206 16.37845,-0.29261 17.48037,-5.6e-4 16.49363,-0.0547 17.18289,0.94179 0.18222,0.26344 0.33132,0.64729 0.33132,0.85301 0,0.20571 -0.1491,0.58957 -0.33132,0.85301 -0.68926,0.99648 0.29748,0.9424 -17.18289,0.94178 -15.4061,-5.3e-4 -15.84981,-0.008 -16.37845,-0.29261 z m -41.92158,-6.58297 c -0.58459,-0.31422 -1.06901,-0.99492 -1.06901,-1.50219 0,-0.50727 0.48442,-1.18797 1.06901,-1.50218 0.52168,-0.2804 0.91922,-0.29206 9.96298,-0.29206 9.04376,0 9.4413,0.0116 9.96299,0.29206 0.58459,0.31421 1.069,0.99491 1.069,1.50218 0,0.50727 -0.48441,1.18797 -1.069,1.50219 -0.52169,0.2804 -0.91923,0.29205 -9.96299,0.29205 -9.04376,0 -9.4413,-0.0117 -9.96298,-0.29205 z m 22.74287,0 c -0.58459,-0.31422 -1.06901,-0.99492 -1.06901,-1.50219 0,-0.50727 0.48442,-1.18797 1.06901,-1.50218 0.52649,-0.28299 0.94911,-0.29206 13.61204,-0.29206 12.66292,0 13.08554,0.009 13.61203,0.29206 0.58459,0.31421 1.069,0.99491 1.069,1.50218 0,0.50727 -0.48441,1.18797 -1.069,1.50219 -0.52649,0.28298 -0.94911,0.29205 -13.61203,0.29205 -12.66293,0 -13.08555,-0.009 -13.61204,-0.29205 z"
       style="fill:#ff8080;fill-opacity:1;stroke-width:1"
       sodipodi:nodetypes="csccsscccscscscsccccccccccccscccccscccscccccccscscscsccscscscsccsccccsccscccscsccscscscsccscscscsc" />
    <ellipse
       transform="matrix(0.12449751,-0.99221992,0.9970689,0.07650888,0,0)"
       ry="13.327793"
       rx="9.5248127"
       style="opacity:1;fill:none;fill-opacity:1;stroke:#1e86fe;stroke-width:1.50087309;stroke-linejoin:bevel;stroke-miterlimit:4;stroke-dasharray:none;stroke-dashoffset:0;stroke-opacity:1"
       id="ellipse1521"
       cx="-169.48854"
       cy="327.5596" />
    <path
       sodipodi:nodetypes="ccc"
       inkscape:connector-curvature="0"
       id="path1523"
       d="m 256.19704,191.90973 -21.39744,11.63363 -0.0365,36.3533"
       style="fill:none;stroke:#1e86fe;stroke-width:1.5;stroke-linecap:butt;stroke-linejoin:round;stroke-miterlimit:4;stroke-dasharray:none;stroke-opacity:1" />
    <rect
       ry="2.6982343"
       y="226.6962"
       x="239.96359"
       height="52.743862"
       width="86.36937"
       id="rect1525"
       style="opacity:1;fill:none;fill-opacity:1;stroke:#1e86fe;stroke-width:1.89999986;stroke-linejoin:bevel;stroke-miterlimit:4;stroke-dasharray:none;stroke-dashoffset:0;stroke-opacity:1"
       rx="2.7937953" />
    <rect
       ry="2.6982472"
       rx="2.7937884"
       y="237.29726"
       x="235.81329"
       height="50.655907"
       width="78.520317"
       id="rect1527"
       style="opacity:1;fill:#ffffff;fill-opacity:1;stroke:none;stroke-width:1.5;stroke-linejoin:round;stroke-miterlimit:4;stroke-dasharray:none;stroke-dashoffset:0;stroke-opacity:1" />
    <path
       style="fill:none;stroke:#1e86fe;stroke-width:1.5;stroke-linecap:butt;stroke-linejoin:round;stroke-miterlimit:4;stroke-dasharray:none;stroke-opacity:1"
       d="m 292.67467,196.63878 -16.63495,8.45871 -0.0365,21.06341"
       id="path1529"
       inkscape:connector-curvature="0"
       sodipodi:nodetypes="ccc" />
    <path
       sodipodi:nodetypes="csccsscccscscscsccccccccccccscccccscccscccccccscscscsccscscscsccsccccsccscccscsccscscscsccscscscsc"
       style="fill:#ff8080;fill-opacity:1;stroke-width:1"
       d="m 238.93971,287.8485 c -0.5846,-0.31421 -1.06901,-0.99491 -1.06901,-1.50218 0,-0.50728 0.48441,-1.18798 1.06901,-1.50219 0.52812,-0.28386 0.9661,-0.29207 15.6147,-0.29261 16.63639,-5.7e-4 15.73137,-0.0525 16.41913,0.94179 0.4196,0.60663 0.4196,1.09938 0,1.70601 -0.68776,0.99432 0.21726,0.94241 -16.41913,0.94179 -14.6486,-5.6e-4 -15.08658,-0.009 -15.6147,-0.29261 z m 34.45375,0 c -0.5846,-0.31421 -1.06901,-0.99491 -1.06901,-1.50218 0,-0.50728 0.48441,-1.18798 1.06901,-1.50219 0.52649,-0.28299 0.94911,-0.29206 13.61202,-0.29206 12.66292,0 13.08554,0.009 13.61203,0.29206 0.58459,0.31421 1.06901,0.99491 1.06901,1.50219 0,0.50727 -0.48442,1.18797 -1.06901,1.50218 -0.52649,0.28298 -0.94911,0.29206 -13.61203,0.29206 -12.66291,0 -13.08553,-0.009 -13.61202,-0.29206 z m -41.97223,-6.54872 c -1.54584,-0.68891 -1.47954,-2.69043 0.10849,-3.27534 0.48512,-0.17868 1.57742,-0.21 6.08468,-0.17452 5.26645,0.0414 5.5132,0.0562 5.9723,0.35603 0.26339,0.17204 0.58807,0.58507 0.72151,0.91786 0.21036,0.52464 0.21034,0.67983 -1.2e-4,1.16729 -0.1335,0.3092 -0.45818,0.70408 -0.72151,0.87749 -0.46086,0.3035 -0.68632,0.31681 -6.02505,0.35561 -5.02432,0.0365 -5.60217,0.0154 -6.1403,-0.22442 z m 14.93561,-0.002 c -1.10532,-0.48868 -1.45924,-1.74174 -0.75831,-2.68476 0.61768,-0.831 -0.179,-0.80165 20.60317,-0.75904 l 19.1666,0.0393 0.47903,0.3153 c 0.26347,0.17341 0.58826,0.56829 0.72177,0.87749 0.21046,0.48746 0.21048,0.64266 1.1e-4,1.16729 -0.13344,0.3328 -0.45823,0.74583 -0.72177,0.91786 -0.4786,0.31242 -0.50104,0.31282 -19.68786,0.35099 -18.02826,0.0358 -19.24521,0.0221 -19.80274,-0.22443 z m -7.58686,-6.76474 c -0.58459,-0.31421 -1.069,-0.99491 -1.069,-1.50218 0,-0.50727 0.48441,-1.18797 1.069,-1.50219 0.52936,-0.28452 0.98209,-0.29207 17.56651,-0.29261 18.79335,-5.6e-4 17.67961,-0.0577 18.37095,0.94179 0.41961,0.60663 0.41961,1.09938 0,1.70602 -0.69134,0.9995 0.4224,0.9424 -18.37095,0.94179 -16.58442,-5.7e-4 -17.03715,-0.008 -17.56651,-0.29262 z m 38.18766,0 c -0.5846,-0.31421 -1.06901,-0.99491 -1.06901,-1.50218 0,-0.50727 0.48441,-1.18797 1.06901,-1.50219 0.52665,-0.28307 0.9505,-0.29205 13.78175,-0.29205 12.83125,0 13.2551,0.009 13.78174,0.29205 0.5846,0.31422 1.06901,0.99492 1.06901,1.50219 0,0.50727 -0.48441,1.18797 -1.06901,1.50218 -0.52664,0.28308 -0.95049,0.29206 -13.78174,0.29206 -12.83125,0 -13.2551,-0.009 -13.78175,-0.29206 z m -22.2337,-6.43336 c -0.5846,-0.31421 -1.06901,-0.99491 -1.06901,-1.50219 0,-0.50727 0.48441,-1.18797 1.06901,-1.50218 0.53217,-0.28604 1.03946,-0.29206 24.64401,-0.29206 23.60456,0 24.11184,0.006 24.64402,0.29206 0.58459,0.31421 1.069,0.99491 1.069,1.50218 0,0.50728 -0.48441,1.18798 -1.069,1.50219 -0.53218,0.28604 -1.03946,0.29205 -24.64402,0.29205 -23.60455,0 -24.11184,-0.006 -24.64401,-0.29205 z m -15.95396,-6.58298 c -0.58459,-0.31421 -1.069,-0.99491 -1.069,-1.50218 0,-0.50727 0.48441,-1.18797 1.069,-1.50219 0.52812,-0.28386 0.96611,-0.29206 15.6147,-0.29261 16.63639,-5.6e-4 15.73138,-0.0525 16.41914,0.94179 0.4196,0.60663 0.4196,1.09938 0,1.70602 -0.68776,0.99431 0.21725,0.9424 -16.41914,0.94179 -14.64859,-5.4e-4 -15.08658,-0.009 -15.6147,-0.29262 z m 34.45376,0 c -0.5846,-0.31421 -1.06901,-0.99491 -1.06901,-1.50218 0,-0.50727 0.48441,-1.18797 1.06901,-1.50219 0.52864,-0.28414 0.97235,-0.29206 16.37845,-0.29261 17.48035,-5.6e-4 16.49362,-0.0547 17.18288,0.94179 0.18222,0.26344 0.33131,0.64729 0.33131,0.85301 0,0.20572 -0.14909,0.58957 -0.33131,0.85301 -0.68926,0.99648 0.29747,0.9424 -17.18288,0.94179 -15.4061,-5.4e-4 -15.84981,-0.008 -16.37845,-0.29262 z m -41.92157,-6.58323 c -0.58459,-0.31422 -1.069,-0.99492 -1.069,-1.50219 0,-0.50727 0.48441,-1.18797 1.069,-1.50218 0.52169,-0.2804 0.91923,-0.29206 9.96299,-0.29206 9.04376,0 9.4413,0.0117 9.96298,0.29206 0.58459,0.31421 1.06901,0.99491 1.06901,1.50218 0,0.50727 -0.48442,1.18797 -1.06901,1.50219 -0.52168,0.28039 -0.91922,0.29205 -9.96298,0.29205 -9.04376,0 -9.4413,-0.0117 -9.96299,-0.29205 z m 22.74288,0 c -0.5846,-0.31422 -1.06901,-0.99492 -1.06901,-1.50219 0,-0.50727 0.48441,-1.18797 1.06901,-1.50218 0.52648,-0.28299 0.9491,-0.29206 13.61202,-0.29206 12.66292,0 13.08554,0.009 13.61203,0.29206 0.58459,0.31421 1.069,0.99491 1.069,1.50218 0,0.50727 -0.48441,1.18797 -1.069,1.50219 -0.52649,0.28298 -0.94911,0.29205 -13.61203,0.29205 -12.66292,0 -13.08554,-0.009 -13.61202,-0.29205 z"
       id="path1531"
       inkscape:connector-curvature="0" />
    <rect
       ry="2.6982343"
       y="239.26688"
       x="225.84758"
       height="52.743862"
       width="86.36937"
       id="rect1533"
       style="opacity:1;fill:none;fill-opacity:1;stroke:#1e86fe;stroke-width:1.89999986;stroke-linejoin:bevel;stroke-miterlimit:4;stroke-dasharray:none;stroke-dashoffset:0;stroke-opacity:1"
       rx="2.7937951" />
    <text
       transform="scale(1.0650879,0.93888965)"
       xml:space="preserve"
       style="font-style:normal;font-variant:normal;font-weight:normal;font-stretch:normal;font-size:4.67429876px;line-height:1;font-family:code;-inkscape-font-specification:code;letter-spacing:0px;word-spacing:0px;fill:#000000;fill-opacity:1;stroke:none;stroke-width:0.26458332"
       x="215.72424"
       y="262.78583"
       id="text1537"><tspan
         sodipodi:role="line"
         id="tspan1535"
         x="215.72424"
         y="262.78583"
         style="font-style:normal;font-variant:normal;font-weight:normal;font-stretch:normal;font-family:monospace;-inkscape-font-specification:monospace;stroke-width:0.26458332">process i:</tspan></text>
    <text
       transform="scale(1.0650879,0.93888965)"
       id="text1541"
       y="249.5177"
       x="229.3022"
       style="font-style:normal;font-variant:normal;font-weight:normal;font-stretch:normal;font-size:4.67429876px;line-height:1;font-family:code;-inkscape-font-specification:code;letter-spacing:0px;word-spacing:0px;fill:#000000;fill-opacity:1;stroke:none;stroke-width:0.26458332"
       xml:space="preserve"><tspan
         style="font-style:normal;font-variant:normal;font-weight:normal;font-stretch:normal;font-family:monospace;-inkscape-font-specification:monospace;stroke-width:0.26458332"
         y="249.5177"
         x="229.3022"
         id="tspan1539"
         sodipodi:role="line">process j:</tspan></text>
    <ellipse
       cy="291.68076"
       cx="-169.07127"
       id="ellipse1543"
       style="opacity:1;fill:none;fill-opacity:1;stroke:#1e86fe;stroke-width:1.50087309;stroke-linejoin:bevel;stroke-miterlimit:4;stroke-dasharray:none;stroke-dashoffset:0;stroke-opacity:1"
       rx="9.5248127"
       ry="13.327793"
       transform="matrix(0.12449751,-0.99221992,0.9970689,0.07650888,0,0)" />
  </g>
</svg>
