<?xml version="1.0" encoding="UTF-8" standalone="no"?>
<svg
   xmlns:dc="http://purl.org/dc/elements/1.1/"
   xmlns:cc="http://creativecommons.org/ns#"
   xmlns:rdf="http://www.w3.org/1999/02/22-rdf-syntax-ns#"
   xmlns:svg="http://www.w3.org/2000/svg"
   xmlns="http://www.w3.org/2000/svg"
   xmlns:xlink="http://www.w3.org/1999/xlink"
   xmlns:sodipodi="http://sodipodi.sourceforge.net/DTD/sodipodi-0.dtd"
   xmlns:inkscape="http://www.inkscape.org/namespaces/inkscape"
   sodipodi:docname="cells.svg"
   width="184.38538mm"
   height="67.798653mm"
   viewBox="0 0 184.38537 67.79866"
   version="1.1"
   id="svg8"
   inkscape:version="1.0.2 (e86c8708, 2021-01-15)">
  <sodipodi:namedview
     inkscape:current-layer="layer1"
     inkscape:window-maximized="1"
     inkscape:window-y="25"
     inkscape:window-x="0"
     inkscape:cy="107.95111"
     inkscape:cx="317.43416"
     inkscape:zoom="0.53436735"
     showgrid="false"
     id="namedview42"
     inkscape:window-height="747"
     inkscape:window-width="1280"
     inkscape:pageshadow="2"
     inkscape:pageopacity="0"
     guidetolerance="10"
     gridtolerance="10"
     objecttolerance="10"
     borderopacity="1"
     bordercolor="#666666"
     pagecolor="#ffffff"
     inkscape:document-rotation="0" />
  <defs
     id="defs2">
    <circle
       r="1"
       id="gpDot" />
    <path
       d="M-1,0 h2 M0,-1 v2"
       style="stroke-width:0.133"
       id="gpPt0" />
    <path
       d="M-1,-1 L1,1 M1,-1 L-1,1"
       style="stroke-width:0.133"
       id="gpPt1" />
    <path
       d="M-1,0 L1,0 M0,-1 L0,1 M-1,-1 L1,1 M-1,1 L1,-1"
       style="stroke-width:0.133"
       id="gpPt2" />
    <rect
       height="2"
       width="2"
       y="-1"
       x="-1"
       style="stroke-width:0.133"
       id="gpPt3" />
    <use
       style="fill:currentColor; stroke:none"
       id="gpPt4"
       xlink:href="#gpPt3" />
    <circle
       r="1"
       cy="0"
       cx="0"
       style="stroke-width:0.133"
       id="gpPt5" />
    <use
       style="fill:currentColor; stroke:none"
       id="gpPt6"
       xlink:href="#gpPt5" />
    <path
       d="M0,-1.33 L-1.33,0.67 L1.33,0.67 z"
       style="stroke-width:0.133"
       id="gpPt7" />
    <use
       style="fill:currentColor; stroke:none"
       id="gpPt8"
       xlink:href="#gpPt7" />
    <use
       transform="rotate(180)"
       id="gpPt9"
       xlink:href="#gpPt7" />
    <use
       style="fill:currentColor; stroke:none"
       id="gpPt10"
       xlink:href="#gpPt9" />
    <use
       transform="rotate(45)"
       id="gpPt11"
       xlink:href="#gpPt3" />
    <use
       style="fill:currentColor; stroke:none"
       id="gpPt12"
       xlink:href="#gpPt11" />
  </defs>
  <metadata
     id="metadata5">
    <rdf:RDF>
      <cc:Work
         rdf:about="">
        <dc:format>image/svg+xml</dc:format>
        <dc:type
           rdf:resource="http://purl.org/dc/dcmitype/StillImage" />
        <dc:title />
      </cc:Work>
    </rdf:RDF>
  </metadata>
  <g
     transform="translate(-3.0338806,-225.31887)"
     id="layer1">
    <rect
       ry="2.6982343"
       y="232.18257"
       x="121.23191"
       height="57.360962"
       width="60.827324"
       id="rect4763"
       style="opacity:1;fill:none;fill-opacity:1;stroke:#1e86fe;stroke-width:1.89999974;stroke-linejoin:bevel;stroke-miterlimit:4;stroke-dasharray:none;stroke-dashoffset:0;stroke-opacity:1"
       rx="1.9620646" />
    <path
       id="path4794"
       d="m 132.91538,283.14987 c -0.39332,-0.31421 -0.71923,-0.99492 -0.71923,-1.50218 0,-0.50728 0.32591,-1.18798 0.71923,-1.5022 0.35532,-0.28385 0.65,-0.29206 10.50558,-0.2926 11.19298,-5.7e-4 10.58409,-0.0525 11.04681,0.94178 0.28231,0.60664 0.28231,1.09939 0,1.70602 -0.46272,0.99432 0.14617,0.94241 -11.04681,0.94179 -9.85558,-5.6e-4 -10.15026,-0.009 -10.50558,-0.29261 z m 23.18051,0 c -0.39332,-0.31421 -0.71923,-0.99492 -0.71923,-1.50218 0,-0.50728 0.32591,-1.18798 0.71923,-1.5022 0.35423,-0.28298 0.63857,-0.29205 9.15818,-0.29205 8.51962,0 8.80396,0.009 9.15818,0.29205 0.39332,0.31422 0.71923,0.99492 0.71923,1.5022 0,0.50726 -0.32591,1.18797 -0.71923,1.50218 -0.35422,0.28298 -0.63856,0.29205 -9.15818,0.29205 -8.51961,0 -8.80395,-0.009 -9.15818,-0.29205 z m -28.23895,-6.54872 c -1.04004,-0.68891 -0.99544,-2.69044 0.073,-3.27534 0.32639,-0.17868 1.06128,-0.21001 4.09377,-0.17452 3.54327,0.0414 3.70929,0.0562 4.01817,0.35603 0.1772,0.17203 0.39565,0.58507 0.48543,0.91786 0.14153,0.52464 0.14152,0.67983 -8e-5,1.16728 -0.0898,0.30921 -0.30827,0.70409 -0.48544,0.8775 -0.31006,0.3035 -0.46175,0.3168 -4.05365,0.35561 -3.38037,0.0365 -3.76915,0.0154 -4.1312,-0.22442 z m 10.04869,-0.002 c -0.74366,-0.48868 -0.98178,-1.74174 -0.51019,-2.68476 0.41558,-0.831 -0.12044,-0.80165 13.86183,-0.75904 l 12.8953,0.0393 0.3223,0.3153 c 0.17725,0.17341 0.39578,0.56828 0.4856,0.87749 0.1416,0.48746 0.14161,0.64266 8e-5,1.16728 -0.0898,0.3328 -0.30831,0.74584 -0.48561,0.91786 -0.322,0.31243 -0.33709,0.31283 -13.246,0.351 -12.12944,0.0358 -12.94821,0.022 -13.32331,-0.22443 z m -5.10444,-6.76474 c -0.39331,-0.31421 -0.71923,-0.99491 -0.71923,-1.50218 0,-0.50727 0.32592,-1.18798 0.71923,-1.50219 0.35615,-0.28452 0.66075,-0.29207 11.81876,-0.29261 12.64418,-5.7e-4 11.89486,-0.0577 12.35999,0.94178 0.28231,0.60664 0.28231,1.09939 0,1.70603 -0.46513,0.99949 0.28419,0.9424 -12.35999,0.94178 -11.15801,-5.6e-4 -11.46261,-0.008 -11.81876,-0.29261 z m 25.69269,0 c -0.39332,-0.31421 -0.71923,-0.99491 -0.71923,-1.50218 0,-0.50727 0.32591,-1.18798 0.71923,-1.50219 0.35433,-0.28307 0.63949,-0.29205 9.27237,-0.29205 8.63286,0 8.91804,0.009 9.27237,0.29205 0.39331,0.31421 0.71922,0.99492 0.71922,1.50219 0,0.50727 -0.32591,1.18797 -0.71922,1.50218 -0.35433,0.28307 -0.63951,0.29205 -9.27237,0.29205 -8.63288,0 -8.91804,-0.009 -9.27237,-0.29205 z m -14.95886,-6.43336 c -0.39332,-0.31421 -0.71923,-0.99492 -0.71923,-1.50219 0,-0.50727 0.32591,-1.18797 0.71923,-1.50219 0.35805,-0.28604 0.69935,-0.29205 16.58051,-0.29205 15.88117,0 16.22247,0.006 16.58052,0.29205 0.39331,0.31422 0.71922,0.99492 0.71922,1.50219 0,0.50727 -0.32591,1.18798 -0.71922,1.50219 -0.35805,0.28604 -0.69935,0.29205 -16.58052,0.29205 -15.88116,0 -16.22246,-0.006 -16.58051,-0.29205 z m -10.73383,-6.58298 c -0.39331,-0.31421 -0.71923,-0.99491 -0.71923,-1.50218 0,-0.50727 0.32592,-1.18797 0.71923,-1.50219 0.35532,-0.28386 0.64999,-0.29206 10.50557,-0.29261 11.19299,-5.6e-4 10.5841,-0.0525 11.04682,0.94179 0.28231,0.60663 0.28231,1.09938 0,1.70602 -0.46272,0.99431 0.14617,0.9424 -11.04682,0.94178 -9.85558,-5.3e-4 -10.15025,-0.009 -10.50557,-0.29261 z m 23.18052,0 c -0.39332,-0.31421 -0.71923,-0.99491 -0.71923,-1.50218 0,-0.50727 0.32591,-1.18797 0.71923,-1.50219 0.35567,-0.28414 0.65419,-0.29206 11.01943,-0.29261 11.7608,-5.6e-4 11.09692,-0.0547 11.56066,0.94179 0.1226,0.26344 0.2229,0.64729 0.2229,0.85301 0,0.20571 -0.1003,0.58957 -0.2229,0.85301 -0.46374,0.99648 0.20014,0.9424 -11.56066,0.94178 -10.36524,-5.3e-4 -10.66376,-0.008 -11.01943,-0.29261 z m -28.20487,-6.58297 c -0.39331,-0.31422 -0.71923,-0.99492 -0.71923,-1.50219 0,-0.50727 0.32592,-1.18797 0.71923,-1.50218 0.35099,-0.2804 0.61845,-0.29206 6.7031,-0.29206 6.08465,0 6.35211,0.0116 6.70311,0.29206 0.39331,0.31421 0.71922,0.99491 0.71922,1.50218 0,0.50727 -0.32591,1.18797 -0.71922,1.50219 -0.351,0.2804 -0.61846,0.29205 -6.70311,0.29205 -6.08465,0 -6.35211,-0.0117 -6.7031,-0.29205 z m 15.30142,0 c -0.39331,-0.31422 -0.71923,-0.99492 -0.71923,-1.50219 0,-0.50727 0.32592,-1.18797 0.71923,-1.50218 0.35422,-0.28299 0.63856,-0.29206 9.15819,-0.29206 8.51962,0 8.80396,0.009 9.15818,0.29206 0.39331,0.31421 0.71922,0.99491 0.71922,1.50218 0,0.50727 -0.32591,1.18797 -0.71922,1.50219 -0.35422,0.28298 -0.63856,0.29205 -9.15818,0.29205 -8.51963,0 -8.80397,-0.009 -9.15819,-0.29205 z"
       style="fill:#1e86fe;fill-opacity:1;stroke-width:0.99999994"
       inkscape:connector-curvature="0" />
    <g
       style="stroke-width:1.05179179"
       transform="matrix(0.95253759,0,0,0.94898284,-14.024173,190.68407)"
       id="g4613">
      <rect
         ry="3.899905"
         y="43.344837"
         x="27.61968"
         height="9.5330954"
         width="21.023056"
         id="rect4541"
         style="opacity:1;fill:#ffd5d5;fill-opacity:1;stroke:none;stroke-width:0.90980011;stroke-linejoin:bevel;stroke-miterlimit:4;stroke-dasharray:none;stroke-dashoffset:0;stroke-opacity:1" />
      <rect
         style="opacity:1;fill:#ff8080;fill-opacity:1;stroke:none;stroke-width:0.90979981;stroke-linejoin:bevel;stroke-miterlimit:4;stroke-dasharray:none;stroke-dashoffset:0;stroke-opacity:1"
         id="rect824"
         width="18.27239"
         height="7.836339"
         x="29.116661"
         y="44.228317"
         ry="3.2057753" />
    </g>
    <g
       transform="matrix(0.26458334,0,0,0.26458334,-95.184941,165.20741)"
       id="g2355"
       style="color:#000000;fill:none;stroke:currentColor;stroke-width:1" />
    <g
       transform="matrix(0.26458334,0,0,0.26458334,-95.184941,165.20741)"
       id="g2361"
       style="color:#000000;fill:none;stroke:currentColor;stroke-width:1">
      <path
         id="path2363"
         d="m 41,604 m 918,0"
         inkscape:connector-curvature="0" />
      <g
         id="g2365"
         style="font-size:20px;font-family:'Times New Roman';text-anchor:end;fill:#000000;stroke:none"
         transform="translate(28,611)">
        <text
           id="text2367" />
      </g>
    </g>
    <g
       transform="matrix(0.26458334,0,0,0.26458334,-95.184941,165.20741)"
       id="g2373"
       style="color:#000000;fill:none;stroke:currentColor;stroke-width:1">
      <path
         id="path2375"
         d="m 41,373 m 918,0"
         inkscape:connector-curvature="0" />
      <g
         id="g2377"
         style="font-size:20px;font-family:'Times New Roman';text-anchor:end;fill:#000000;stroke:none"
         transform="translate(28,380)">
        <text
           id="text2379" />
      </g>
    </g>
    <g
       transform="matrix(0.26458334,0,0,0.26458334,-95.184941,165.20741)"
       id="g2385"
       style="color:#000000;fill:none;stroke:currentColor;stroke-width:1">
      <path
         id="path2387"
         d="m 41,142 m 918,0"
         inkscape:connector-curvature="0" />
      <g
         id="g2389"
         style="font-size:20px;font-family:'Times New Roman';text-anchor:end;fill:#000000;stroke:none"
         transform="translate(28,149)">
        <text
           id="text2391" />
      </g>
    </g>
    <g
       transform="matrix(0.26458334,0,0,0.26458334,-95.184941,165.20741)"
       id="g2397"
       style="color:#000000;fill:none;stroke:currentColor;stroke-width:1">
      <path
         id="path2399"
         d="M 41,720 M 41,26"
         inkscape:connector-curvature="0" />
      <g
         id="g2401"
         style="font-size:20px;font-family:'Times New Roman';text-anchor:middle;fill:#000000;stroke:none"
         transform="translate(41,757)">
        <text
           id="text2403" />
      </g>
    </g>
    <g
       transform="matrix(0.26458334,0,0,0.26458334,-95.184941,165.20741)"
       id="g2409"
       style="color:#000000;fill:none;stroke:currentColor;stroke-width:1">
      <path
         id="path2411"
         d="M 194,720 M 194,26"
         inkscape:connector-curvature="0" />
      <g
         id="g2413"
         style="font-size:20px;font-family:'Times New Roman';text-anchor:middle;fill:#000000;stroke:none"
         transform="translate(194,757)">
        <text
           id="text2415" />
      </g>
    </g>
    <g
       transform="matrix(0.26458334,0,0,0.26458334,-95.184941,165.20741)"
       id="g2421"
       style="color:#000000;fill:none;stroke:currentColor;stroke-width:1">
      <path
         id="path2423"
         d="M 347,720 M 347,26"
         inkscape:connector-curvature="0" />
      <g
         id="g2425"
         style="font-size:20px;font-family:'Times New Roman';text-anchor:middle;fill:#000000;stroke:none"
         transform="translate(347,757)">
        <text
           id="text2427" />
      </g>
    </g>
    <g
       transform="matrix(0.26458334,0,0,0.26458334,-95.184941,165.20741)"
       id="g2433"
       style="color:#000000;fill:none;stroke:currentColor;stroke-width:1">
      <path
         id="path2435"
         d="M 500,720 M 500,26"
         inkscape:connector-curvature="0" />
      <g
         id="g2437"
         style="font-size:20px;font-family:'Times New Roman';text-anchor:middle;fill:#000000;stroke:none"
         transform="translate(500,757)">
        <text
           id="text2439" />
      </g>
    </g>
    <g
       transform="matrix(0.26458334,0,0,0.26458334,-95.184941,165.20741)"
       id="g2445"
       style="color:#000000;fill:none;stroke:currentColor;stroke-width:1">
      <path
         id="path2447"
         d="M 653,720 M 653,26"
         inkscape:connector-curvature="0" />
      <g
         id="g2449"
         style="font-size:20px;font-family:'Times New Roman';text-anchor:middle;fill:#000000;stroke:none"
         transform="translate(653,757)">
        <text
           id="text2451" />
      </g>
    </g>
    <g
       transform="matrix(0.26458334,0,0,0.26458334,-95.184941,165.20741)"
       id="g2457"
       style="color:#000000;fill:none;stroke:currentColor;stroke-width:1">
      <path
         id="path2459"
         d="M 806,720 M 806,26"
         inkscape:connector-curvature="0" />
      <g
         id="g2461"
         style="font-size:20px;font-family:'Times New Roman';text-anchor:middle;fill:#000000;stroke:none"
         transform="translate(806,757)">
        <text
           id="text2463" />
      </g>
    </g>
    <g
       transform="matrix(0.26458334,0,0,0.26458334,-95.184941,165.20741)"
       id="g2469"
       style="color:#000000;fill:none;stroke:currentColor;stroke-width:1">
      <path
         id="path2471"
         d="M 959,720 M 959,26"
         inkscape:connector-curvature="0" />
      <g
         id="g2473"
         style="font-size:20px;font-family:'Times New Roman';text-anchor:middle;fill:#000000;stroke:none"
         transform="translate(959,757)">
        <text
           id="text2475" />
      </g>
    </g>
    <g
       style="stroke-width:1.05179179"
       id="g4625"
       transform="matrix(0.95253759,0,0,0.94898284,16.098679,212.69172)">
      <rect
         ry="3.899905"
         y="43.344837"
         x="27.61968"
         height="9.5330954"
         width="21.023056"
         id="rect4621"
         style="opacity:1;fill:#ffd5d5;fill-opacity:1;stroke:none;stroke-width:0.90980011;stroke-linejoin:bevel;stroke-miterlimit:4;stroke-dasharray:none;stroke-dashoffset:0;stroke-opacity:1" />
      <rect
         style="opacity:1;fill:#ff8080;fill-opacity:1;stroke:none;stroke-width:0.90979981;stroke-linejoin:bevel;stroke-miterlimit:4;stroke-dasharray:none;stroke-dashoffset:0;stroke-opacity:1"
         id="rect4623"
         width="18.27239"
         height="7.836339"
         x="29.116661"
         y="44.228317"
         ry="3.2057753" />
    </g>
    <g
       style="stroke-width:1.05179179"
       id="g4637"
       transform="matrix(0.61608288,0.7237665,-0.72647763,0.61378373,60.8047,181.47601)">
      <rect
         ry="3.899905"
         y="43.344837"
         x="27.61968"
         height="9.5330954"
         width="21.023056"
         id="rect4633"
         style="opacity:1;fill:#ffd5d5;fill-opacity:1;stroke:none;stroke-width:0.90980011;stroke-linejoin:bevel;stroke-miterlimit:4;stroke-dasharray:none;stroke-dashoffset:0;stroke-opacity:1" />
      <rect
         style="opacity:1;fill:#ff8080;fill-opacity:1;stroke:none;stroke-width:0.90979981;stroke-linejoin:bevel;stroke-miterlimit:4;stroke-dasharray:none;stroke-dashoffset:0;stroke-opacity:1"
         id="rect4635"
         width="18.27239"
         height="7.836339"
         x="29.116661"
         y="44.228317"
         ry="3.2057753" />
    </g>
    <g
       style="stroke-width:1.05179179"
       transform="matrix(0.61608288,0.7237665,-0.72647763,0.61378373,118.94007,218.67429)"
       id="g4643">
      <rect
         style="opacity:1;fill:#ffd5d5;fill-opacity:1;stroke:none;stroke-width:0.90980011;stroke-linejoin:bevel;stroke-miterlimit:4;stroke-dasharray:none;stroke-dashoffset:0;stroke-opacity:1"
         id="rect4639"
         width="21.023056"
         height="9.5330954"
         x="27.61968"
         y="43.344837"
         ry="3.899905" />
      <rect
         ry="3.2057753"
         y="44.228317"
         x="29.116661"
         height="7.836339"
         width="18.27239"
         id="rect4641"
         style="opacity:1;fill:#ff8080;fill-opacity:1;stroke:none;stroke-width:0.90979981;stroke-linejoin:bevel;stroke-miterlimit:4;stroke-dasharray:none;stroke-dashoffset:0;stroke-opacity:1" />
    </g>
    <ellipse
       transform="matrix(0.12483384,-0.99217766,0.99708485,0.07630073,0,0)"
       ry="11.826134"
       rx="8.4290037"
       style="opacity:1;fill:none;fill-opacity:1;stroke:#1e86fe;stroke-width:1.50089312;stroke-linejoin:bevel;stroke-miterlimit:4;stroke-dasharray:none;stroke-dashoffset:0;stroke-opacity:1"
       id="circle4561"
       cx="-253.92393"
       cy="84.58638" />
    <g
       style="stroke-width:1.05179179"
       id="g4661"
       transform="matrix(0.95253759,0,0,0.94898284,69.139612,189.9236)">
      <rect
         ry="3.899905"
         y="43.344837"
         x="27.61968"
         height="9.5330954"
         width="21.023056"
         id="rect4657"
         style="opacity:1;fill:#ffd5d5;fill-opacity:1;stroke:none;stroke-width:0.90980011;stroke-linejoin:bevel;stroke-miterlimit:4;stroke-dasharray:none;stroke-dashoffset:0;stroke-opacity:1" />
      <rect
         style="opacity:1;fill:#ff8080;fill-opacity:1;stroke:none;stroke-width:0.90979981;stroke-linejoin:bevel;stroke-miterlimit:4;stroke-dasharray:none;stroke-dashoffset:0;stroke-opacity:1"
         id="rect4659"
         width="18.27239"
         height="7.836339"
         x="29.116661"
         y="44.228317"
         ry="3.2057753" />
    </g>
    <g
       style="stroke-width:1.05179179"
       transform="matrix(-0.36115906,0.87812544,-0.88141476,-0.35981126,131.48424,239.1834)"
       id="g4667">
      <rect
         style="opacity:1;fill:#ffd5d5;fill-opacity:1;stroke:none;stroke-width:0.90980011;stroke-linejoin:bevel;stroke-miterlimit:4;stroke-dasharray:none;stroke-dashoffset:0;stroke-opacity:1"
         id="rect4663"
         width="21.023056"
         height="9.5330954"
         x="27.61968"
         y="43.344837"
         ry="3.899905" />
      <rect
         ry="3.2057753"
         y="44.228317"
         x="29.116661"
         height="7.836339"
         width="18.27239"
         id="rect4665"
         style="opacity:1;fill:#ff8080;fill-opacity:1;stroke:none;stroke-width:0.90979981;stroke-linejoin:bevel;stroke-miterlimit:4;stroke-dasharray:none;stroke-dashoffset:0;stroke-opacity:1" />
    </g>
    <g
       style="stroke-width:1.05179179"
       id="g4673"
       transform="matrix(-0.36115906,0.87812544,-0.88141476,-0.35981126,142.76942,264.96509)">
      <rect
         ry="3.899905"
         y="43.344837"
         x="27.61968"
         height="9.5330954"
         width="21.023056"
         id="rect4669"
         style="opacity:1;fill:#ffd5d5;fill-opacity:1;stroke:none;stroke-width:0.90980011;stroke-linejoin:bevel;stroke-miterlimit:4;stroke-dasharray:none;stroke-dashoffset:0;stroke-opacity:1" />
      <rect
         style="opacity:1;fill:#ff8080;fill-opacity:1;stroke:none;stroke-width:0.90979981;stroke-linejoin:bevel;stroke-miterlimit:4;stroke-dasharray:none;stroke-dashoffset:0;stroke-opacity:1"
         id="rect4671"
         width="18.27239"
         height="7.836339"
         x="29.116661"
         y="44.228317"
         ry="3.2057753" />
    </g>
    <path
       style="fill:none;stroke:#1e86fe;stroke-width:1.5;stroke-linecap:butt;stroke-linejoin:round;stroke-miterlimit:4;stroke-dasharray:none;stroke-opacity:1"
       d="m 61.844934,252.76667 c 2.530626,-2.82421 5.304254,-6.13444 7.834877,-8.95865 l 50.755669,0.0105"
       id="path4777"
       inkscape:connector-curvature="0"
       sodipodi:nodetypes="ccc" />
    <text
       transform="scale(1.0650879,0.93888965)"
       id="text4792"
       y="255.56641"
       x="117.75549"
       style="font-style:normal;font-variant:normal;font-weight:normal;font-stretch:normal;font-size:4.6743px;line-height:1;font-family:code;-inkscape-font-specification:code;letter-spacing:0px;word-spacing:0px;fill:#000000;fill-opacity:1;stroke:none;stroke-width:0.264583"
       xml:space="preserve"><tspan
         style="font-style:normal;font-variant:normal;font-weight:normal;font-stretch:normal;font-family:monospace;-inkscape-font-specification:monospace;stroke-width:0.264583"
         y="255.56641"
         x="117.75549"
         id="tspan4790">process i:</tspan></text>
  </g>
</svg>
